<mxfile host="Electron" agent="Mozilla/5.0 (Windows NT 10.0; Win64; x64) AppleWebKit/537.36 (KHTML, like Gecko) draw.io/26.0.16 Chrome/132.0.6834.196 Electron/34.2.0 Safari/537.36" version="26.0.16">
  <diagram name="Page-1" id="aIq61j5FphcHjY3YsC3B">
    <mxGraphModel dx="1036" dy="607" grid="1" gridSize="10" guides="1" tooltips="1" connect="1" arrows="1" fold="1" page="1" pageScale="1" pageWidth="1700" pageHeight="1100" math="0" shadow="0">
      <root>
        <mxCell id="0" />
        <mxCell id="1" parent="0" />
        <mxCell id="-N1yowjikpxl8D73sXSA-1" value="" style="shape=image;aspect=fixed;image=data:image/png,iVBORw0KGgoAAAANSUhEUgAAAcwAAAHMCAYAAABY25iGAACAAElEQVR4nOy9B7wlRZn//avuPvHGuWHCnczMMMAMOQclyaqrIkpSVzCsYVUQRKIJV/wbd1/zGhYVEVRE1wC6C4pkkCRIkDhMznPn5ntSd9f76T6pu7qqu8+de+cOc54vn+Ge011d9XR1n3rqeeqpKg0EQRAEQURCCpMgCIIgYkAKkyAIgiBiQAqTIAiCIGJACpMgCIIgYkAKkyAIgiBiQAqTIAiCIGJACpMgCIIgYkAKkyAIgiBiQAqTIAiCIGJACpMgCIIgYkAKkyAIgiBiQAqTIAiCIGJACpMgCIIgYkAKkyAIgiBiQAqTIAiCIGJACpMgCIIgYkAKkyAIgiBiQAqTIAiCIGJgTLcABNHMXLHPvJnM5kdfuXTuMQZnyxjDLM55CwPAGBuzbWwq2vz5r6zd+IjN+cNfWbNp+3TLTBDNCptuAQiiGTkJYL856airGcPlrYaeKdocRW6Dc386xoAU05DUGEZNa4wDn++88+EvTZfcBNHM6NMtAEE0E8e2tmrvmNtz2vcO2++7uqa9l3MkCjaHJWpKDybnKHDu9G6TOmOv+cTiuUdxsPUlaBs25vPqCwmCmFTIwiSI3cjOk465rDOhfWXEMmHHVXXVX2klvc6ArK5j1OIXdP7lr9+ZKlkJgvBDFiZB7AaO62zt/PuxB/9/KZ1dMm7Zxq6Yhc61RZsjpeGkSxfPbb1vYPiv6/PF0iSKSxCEBLIwCWI30H/yUV9r0bWLc5YtT8DqFmToMQHH0hyzcE3XnQ9+ZtKEJQhCCk0rIYgp5rJFcw9JM/Z+pbKEQjHGMEPHbQspzb7oskXz99slIQmCiIRcsgQxhVy1aE72E/vM/63J+cIJZRDDB2RxpE6c0XaEmTOvf2BsLEQrEwSxK5CFSRBTyOX7LLzEAA6TnmQxFCIX0ivQNXbMJ1cs/LeJSUkQRBzIwiSIKeLShXMWnNLVfqPJkXIPTDRiIMZ1nDu9X3akzdn19w8Nj02wJIIgQiALkyCmiM+dzE4xNK2tZiRGjUmqLE7ZdUI6zoCUznoAfuIExSUIIgJSmAQxRRTXzj2hEBboI8LjBfqori3YNq5aNO+ECeZAEEQEpDAJYgq42vlxMe3Y2PqvUXetJGObA7rOj2swJ4IgYkIKkyCmgPMPP7wDwEz3S0UZMsYqfz0JhVV8fExgzJMDfc+sWJFs/EqCIKIghUkQU0B7hzHD5jztfqkoQ15ZL9a3bGyYCToR9yxHpq832zWBKwmCiIAUJkFMAYZudwJIx0osszgnnlazodG2fQQxBZDCJIgpoGQlBgDkYiWOa3HK0gYVqFXgpWIDohIEERNSmAQxBfQOFbZrTKIwG7EgvceEKSdMMf2EAeNzTv7bjsYlJggiClKYBDEFsMceG2dgmwMnGrEgxeOec7Vx0MCC7Wwj+yxoeTyCmAJIYRLEFGFZ9oONDE8qiRn8ozPmaMp7J1oMQRDhkMIkiCniC2s33ZPWPT8xmR9VXN1HTNKAlk1pDF9YvYEUJkFMEaQwCWKK4DDvLNr29tpUSy4xFcXVfcQkMRdfd07lLXtjsWDdt0tCEwShhBQmQUwRX12zdYutsU8Z0ggdAZmVKV4mU56Vv4bGwDXt41/ftKV/l4QmCEIJ7VZCEFNIKWc/+eqetpM52IJJzTioTO+4/Nl1Vz02OjrR1WgJgoiAFCZBTCEPjo7anLGNp3Z1nmfLoncmHAlUJ6ExfH71xvd+c/2mNbueG0EQKsglSxBTzF+Hcn8yOf9VQuaa3UV7MKUxmLZ9w0MDY/fsWk4EQURBFiZBTDFrczncOzBy69tnz8ynNBxhVTeUlhHT4nSSpRgbyJvW1W964vlP3Ts0bE6exARByJgEhxBBEHEZOPGYd2QT7MaibcOURc1WCdnFxLFUGWPIseJbev78t99OmbAEQfggC5MgdiNfXrvhqRLnf3jVjLb2BGP7MY1pdsypI46i1BkzOXDj51dvOP/0v71w9+6QmSCIMmRhEsQ0MXjSkeeDsWuMYmGBzTksIwFm6LVl75wfJzctaGYJyVQKeQ2rOMOnu+545OfTLTtBNCOkMAliGrlqyfyWN377u79JbtpwWsumtUht74duFt1fpqUnUejtRX7xMjxx518+/MJdf7nuS6s2xNsBhSCISYcUJkFMM79Zt+UFm/NlViIJ6Jq7srprXTJHa9pIMaBkFT521ry+r0+3rATRzNBGswQxjfzipdXLYdvzGLdhFHJlRSmksRiDoWkHT5OIBEFUoHmYBDGNJPTEBUxjmep3adws586JE87+2Meog0sQ0wgpTIKYJs684IIsON4oXZRdwOb2grMvvnjf3SIYQRBSSGESxDSh6YnFiWRiAbej93vWNS1p2Ppbd4tgBEFIIYVJENOExtlKpmmxfoOuDcrts9919dXkliWIaYIUJkFME2dfdNFBlhlvRTvbsmAkU/vlhobnTrlgBEFIIYVJENNEIpk6yVGEcWFMS6444qjjplQogiCUkMIkiGng7I9+NMVte3kj11hmCSuPO+HQqZOKIIgwSGESxHTA9EUAZjRyiW3b0A2D5mMSxDRBCpMgpgGNs5VgLPT3J12Gi/OVZ3/4w7RpAkFMA6QwCWIaeMfHLz0oajqJYnbmTJZMzZkaqQiCCIMUJkFMB7p+cJwFCwJomsHA9p8KkQiCCIcUJkHsZt556aUJblkHTuRaxyr9yOVX0TgmQUwDpDAJYjdz1oWXnApg4USudRTmzlLp5MmXiiCIKEhhEsRuxjL5uYyxyMAd5d57DAdyzum3SxC7GfrREcRu5F8u+lgr0/gpth09fqlKwTlm/+qldYdNunAEQYRCCpMgdiMW0xanMpkFnEcvuK5C07SEoetvnlTBCIKIhBQmQexGDjr6qEMaWQ5Phm3b4OBnfPjKK5OTJhhBEJGQwiSI3ch+xx57qBlzwXUV3LZhJJMr+3PFeZMmGEEQkdBWQQSxG8kmUgeapVI9oocxd1CyURKGDkPDQQBennQhCYKQogzEIwgpK4/SsfKo+eA4BOd++CAYxjJo+hww1gXGUoFIFQ2AXXnTvOeY5y+v/LUV6TXPueoxmY6p+kts4bt4bKLDh1WZNEl+3nNcca8c6NPMpRq3Pa5UPqGfIQPDELStw1zvD9StVwaZzN40LKQ+xPuE8IxU6VTnVMdE+RFxLiy9mMb9y/Pg9k7Y1iaU8Bxu/ubT4OzveOqhjfjHI7vmHyeaClKYRHzO+cg8vPOj34Gmn45kGjBLgFmsNM4qLVGF+zWH77zsu9f6YiGKJc7xqPLC8oGgeaLymQyi8o2qk4nk5f0OQSvt6j3GySduXcruPcazY5XzySSgJ4D8uKO0/wc//8YFuOk7mxu5G6J5IYVJRHPFtf+E41/9r2DsNWBaF6ySRzeqGkPxuMwkUCktLmmw4zT8qnzF/MOukykM1feo8uOYTSplFSZ7HKURZoLF6YDEvfcwBRsmc9znJZM76pow+SrnHAWq686h7eD8Djxw1w/xpff/WZEpQbiQwiTUnHvBLLzjo99FIvkW15L0LRYuawDjWm2S41FtdGgejVh64nXeAhtFptjFfMXjcSzCMHni1HNYJyZKmUVdp5InrjW6K1Z5lHwTzFvTACMBmMWb8NOvfQQ3f69/ggISezm0TRAh58LvHI63nncLdP0ElAoAt4XGiCn+IsTainJrNnKd2DDGaeTFBlccSJURJrN4TpSPxVRE4n2HWWBhCkGWjgv5IsLyUykeleyqnk5YWaJcKmtbVr+q9KLsMstSUd/Ou21ZgJFciYOOeT1s83488+hWSQUTTQ5ZmISflUd24/M//RwSiXejVMzWTzTirhSJ4wIUP6sIa3TD/srSq+SPY8FEKf4o6zsqD1HeiV4TJXtYJ0WU1ZsujnUd9iyjym3UYyGTIY7ilOSXSI6gVPo+PvnOL+CZRwZCboJoMkhhEn5+/9zNMJJnoVioHIhSZqreexzFJ+Yvuy7O8bguySgZGj0vS888Yk1Uroi8Y7lIVd8RQz4oOkGNPF8VYRag84cDfCKdi0bKR7Tln0wDhcJ1eMt+75lAIcReCi1cQJRZccQM/Pa5G8D0M1EsRrjweIT1E2adcEk6mfKUpfOiOh5m8YjpZOWJZcvkh1AHXpkqx7lMhiiZIclbZRWLz0EmT0j+kXM/Vfcmc8OGyS3+9eYnsXy5eI2s7iHIICs3TCbRxSu5b6fDaOjn4bfPX4uVR7VJbpZoQsjCJMr8/pkvwsheiWK+ciCuBTOBNA1ZX6LVFlF0ZH5RaaLuzyOAO+1FJqvKGorj/mzE7RjHlTlRSyyMRtylca+vEHjGKpcqJviOhtWjJG0qA5TGP4PTD7gm5IaIJoEUJgH86h+nI538KUyzXdqoV3v9NQNDZb2pxrFUikJ2LTzn4zSIqgZVYr0o3Y+iXCEuw0i5xfzDyhTziVLgYfUYdo2qTmTnxetlssueqaxTIJ4T84t6huJ9hsnZYMeAo25la6p3tJLQSAwgXzwbZx1wR/wCiL0RipJtds69cF8cfsK9MK203HVYPrYwo2F5VncPjxR5WWky5knrbWTEhospXHCeCeWyc57y1d+Z5BpZIy2TSTwu5iWTRXYcIeWJjb/sn0oe4TuT1bV4v2FyqO4lpK6YmFasH9lzU9WpDJV84juoel6yvCIsUJtjZkrDAa06WgyGnUVbSC6UwXkGhv42cPsnePqR4ZCbIfZyGuiSEXslv3/uu2D6v7lh9WJDw4GlaYb3zkth/1bDHfAucY4Xx238eGMBL4zbQoNaJczdGmZthFlGYl4IsfoglBf1PeRnwKBYbSgqn7hW6USsThWq+hPLjXJtxrHcwuSKY6GGpQ+x9hq6j2D5nTrD++amcHSHgaTGYHFga8HG9ZsLeHDIVHhPGKAbALe/htP3vSSkEGIvhyzMZubcjyzHwcf9AJZVeQ/8vfgD2zR8Zd8WdCe1sgfLNXIYepIaju0w8MCgiTGLexoZRDSMKqtBTC+zdIU0LMyKlZWnskJFOUXlLrtGZiHKzse5R5mc3nsMsTgDxMlbdU6Vn2i9ys6FyMHCOiUyq1E8rnqfVHWj6sgwzEpo+ObyLJa2GO57zCtJWg2G4zsNbC7YWJuvdgIFC9rpNGnsUFjsZ3jmocGQSiP2YihKtpl52wXvgG0ng41eebzyhE4DlqJJbDcY3j6rsoZ4zcpsxKUq0oizwxtsIzbmHhkCLjbuv0dluWEWlSyZyhr2JmSCXDJlIShprrheiuT+48giRdYRkF0r6zzI7kF2vTePMCtblEe8VpYWgnzlP0e062hP6NK15h0F+i99KaS0kPeBI423v++cCGGJvRhSmM3Km99lwDBOD0arotbozTA0ZVPmHJ+f1TzxEjJrLszCYkJjyYXvKuuFC/9CrJTA5VGNbpj7USIPl+Ur5inJi4eVpbjGV08quWXnvDJKOkaRykpML34Wn19UWbI8ZOXI6lS8PqSz4TvG3XHLHoPBUpTpHO0yGLJayP3aNqBn3oyTTmqkd0fsRZDCbFb+9YojYFsHBU/U24JiRFs6ZrntkIewsToZrK7Y3H/M868ygb3WHnMhTfUaXneZAZ5zXNCtXLjGW6b3syc/1fX1i0PKEGXhwjFvWZL68+kjoTPirRufLhXrxitTdUEA4btPPlF+/60q/3nrUlqvsvOeuapeGeCpG1+dh1nGsk6Y0DliDOO2usFzUpm8+j6HdIC4fQQu/u/9FdkQezm0gXQzcsCRDDa7BJqugVe3A+TCdloMT42YOLnLQEHiw+Kc49ZtRYXrjgc/VxpDHXAjE3sNhu6EhoQOJN2IW1EZwe/CFA2LgDLnknmR6uMMHLyaUfU8UxuTvmsb2PPZn5bX3bHVepZ5cgP9DtXqNxFl1u4jeI/1W+RCPYvCePKNY4/68pDkpXp2ohtdUlDR5ijZwI6ijR2mjVGruq0mU7jf/Zn9Y8xSKkzn+J93ljBsccFlLsip6QnY5kVYtOiDWLMmojKIvQ1SmM3IwUd3g2mvLy+o7qHWuy43Gn8ZMPFP3RaWt+g+azPJgPuGLDw8bHqCOqBuUm2OFp25kYknzTBwQJuOrM5gVAJ3JrqfM9FcVJVdiXPkTODJURP37jTx0LCJcVsMPgsqvGfGLPx+axFvnp30dQI1BmzK27huUwE8EEwm5GXbzvv8Vhz1hsux5jtDk3h7xCsAUpjNiM2XIpFqra/qI1JWfCWb49OrcjhzZgIndCZcy3C4xPHosIn/cazLQAMl9Oo5sE9Kw6tmGDi5O4GuZLnJczrxeRtx7BWCkKJrwJEdBo7oMNx5lLf1l1zluaFgVRYiQND7wYBrNxexucRxWncCMxKAk/zZMQu/3FKE5VjxTGYdezqE3F1ntgcaFgJ4cjffNjHN0OB1M/K5H74Ph5/03yiJLlUFVZ+i19cnbVjKaJzj4FYdZ81O4sBWw7UgVVZkLDffHsArRc5mRa+8gk8Om7h5axFPj1qwpdZi/X32uct9Ll21W9o9l0gC6/72Tnzo7Bsn9y6IPR2yMJuRFcf3lTeDVoTgi3gnczOx9y5cY3G8vS+F8+amkLe5G0gRRiNKyJ07F3fwcJIhZRkk5pDvbsGqCHBgu4EjOw1cu76AX20pVjSp8G5X3mEO0Y1bSxByUxUtO2v5nKm5E2JPhhRmM6JZM2DLwvARojijmkTuBvL868IMju7QMW5NfhM6XcqSkMMrJtqe9FRsDoxbwDv6UuhLa/jppgIG3Lg22Xsd8t6H3ZTT2WTJzkkWnXgFQNNKmhJmqMP0Va4o1dzF+qGLF6Rx7AxDETgRXQLxCmM3dWDC3sgwTutJ4sPz0p5gNtExwhWdxgjcVX/QHv8CYm+BFGYzoidaAhGyDakxYZI8B/6pK4EVbQbiGJZ7kkVC7Pmo3peo96hkc9c9e+IMwz/3FlwyvzVO7t75mOTuaEZIYTYlskl94u+fSz5L0nDgNV0GPjA/RdNDiD0O5528YH4ax3YmhAgf2coLEI5BSEe+kWaHFGZTI64GAMV39az6BSkNFy1MQ6u6YSPcsXs7zX33eya6xnDVojRmJmXNnWIKirhSUOA8dQ+bEVKYTYkYAhjW2xav8zQkHHhDb9Lvhm1yT1WcuyeluvvhDPjn7oTwfqoWKVB5W7y/E2o6mxF66k2LrNccNgdNdFXBXb3nhBnGpPa1WRNYqDKlOhV3vafW5FTLJcvf6dSd2GWUl2GUphIDgGQBQUxYho9oNkhhNiWiBSlbsSfs2vLC2GfOTKBVn9zWo1ljKabirvfUmpxquVT5z0hoeH2P18pU/Q54eFT4nlqxxJRDCrMpidPL5kJyv1J1FOXre5KwpljSMKijTzSC80af3ptE2rd0nqgcoRjPF38XNIbZjJDCbEq4ZNwSQoCDbBJ3/djitIY2Y3pVFnX0iUZw3pdZKYb5qbBmT+w0qhzo1F1rRkhhNi2qhQuqyBqN+ly2ZVl9Wq1LgpgIjl24rEWTdALDlCPiLyNJ7NXQ0niEZL9FVYNQb1xmppiweTRB7Pk4nbxZibB3WzwmbjJA1mUzQxZm0xO1ObG8553WGblEiVccnAMthrfZk00h8XpUJBYmU1mjxN4OKUxCMidTNd2kfqxFY74U0wX19YNM59ScV8Lz0N1WT7WGrBgp64ULy+oRzQa5ZJsaLgmdV32H4J7yH50uqJ8fZDqn5ryynkfU0ENY2lfWnRKTA1mYzYpvqkilMWBh89Bo7EaEauOVjPg+e9ywDIpVrqofGTWdTQpZmM0KR9CK9EUOitNN9vzIQJ2VmzHHwMrbHDkbGDM5Bk3nszCvlAMZjaHDYO70mLQGd34eK6/4F7nxNZrAxnDqUqssbGPaHOM2MFLiGLbK9SnWUUpjaNOBrMaQNRgyGpDUy8FhFt/T6itkiTwuS+NJ61rwNA+zGSGF2bRwYQkwmZLEHr1Tg1ERub9k45lRC8+O29iSt7ClwDFkcoy6bVpES83K64K26kCnzjAryTAno2P/rIYVrTq6Epp763EU6CudqoIcKnGsydtYNW5hzbiNjQUbgyUbA1ZFSYbWZ+UPY+jRgfaEhnkphoPadCzN6uhLaW7AmKNA9wyVE7Z2rJgOe+xvgdg9kMJsSsRAnqhVTvYsUlq5cX94yMIfthfx+IiJklVp8b2u5urn2u3KGrvyd0e5jtocG0rc/XKrzV3r6LB2A2/sMXB4h+FOSSjuGa38pOIoyRRj2FG0cfv2In6zo4TRUsU1qQn1xRBjRxruvlnbLeefjVU54O4B0z3Tl9bwuu4ETu5KoCvJUNgN9ale7FE2x1L0pqhcs3ve74KYekhhNjXiItOQNBayIKDd31iwikW5rWDjjztKeGyohPVFwLIrDbuOEGuBCcoyzN1cz6/IOf46WMIjQyV3G7PDOgz8c08CM1Oaa2m90o1OncG1HJ8YtnDfoInnRi2MWNX7F5eDk435hQXBCC5wVs5vU8HGjzYW8KutRby608AJMxJY2qIhqbEps+J3LVtSjEQdUphNScj4jS+NzPJszCUlU2GMNbYLmKMoHUvk5s0F/H57ybUEa1ZOIPZCJadqXBZqC7uiIxzLcnWRY/W2Im7fUcKbehN4y+yUa+lOViNfU9uMNRTlqraewq/J6gxPDpv4wss5DDg3Ua1HTXTTI3IRC3knSuygVAPLygp52Oa4td/ErdtL2L/dwAf6kljeqiM/bRZ82HutmmpFNBukMJselRKRpZPNyYyfe+1YzMsdRTlQsnF3v4nb+0vY4GhNxgSXYNS0F5XS91xTjfTx5SHmVy53xOb42ZYi7h00cVpXAid2G+4uGLuqOGu2XINTQhpJXTUcHUV5y/YS/j5qlhWUJlrZYZZkHClEhaLoxFQEenbUxKUvWjimXccZs5Lusou7R2/K3hfVOyTrABDNBinMpibMwlI1IlPfs3aMne0FG7/eVsR9A2bdotRU1qP3PlQTzlVjUuIhWRnClAIGrC9y/GhzAb/cWsSruwy8ZWYSvUltDwlk8VNVlPcPlPDLLUWsztv1Todyf0jv1SrXvMp9L6Jy6aLWEXGs+PuHLNw/OI59szouXJjCooyO0pTqJdW9qce6KeinuaHJRE2JypKYfhyJSpzjt9uK+NNO0+9+DTAZMkcFd4SUyZgr3239Jn63tYiizffIptSR+K+DJm52lGXO9tyaOE4JyWcR2R2GeSVEi03WSfMc0hheyFn49ZaiG507ydutSpCN46vYM34jxPRBFmZTwiUNlyrQh+22yECn9/bYsImfbCxgXc39ihguVolsvBqV4ygxhqQGGIxDc6wZm8MCd4N6eCCWSdWgyxQKq41x3tpfwt9HLbx7bgqHtxt7hKXp1OdA0caX1uTw/LhdU0jhCk5xjFd96eV3IsE4dOb8LXccSna5Pm1vBydQpyrrHwHX912DJu4eNPH67iTO70u6U1Gmpk7jWM8q2YlmgxRmUxIW8Ti5jULcEc+MBtequHZDoRzxGnAVhslY+c4rM+QZx6KsgeNbE1jRkcChrUn0JhhaDc2dXJ+3OcZMG9tLNh4bKeHZ4RLuGy1h7bhZLkbXJNXAFK7pumtzfdHGNS/l8MH5KXcsLjeNWtOxzIo28O8v59w5lT4lJnVBM8+5qpKsTJbkHB0JhuWtCbyxK41FrQksSWjI6AydSc3VwYMFG9tMGy8VbbwwVMAdQyWsGTcxUqqU7Y1iro0ZyxQVammco3/sL+LRURNfWppxx4on06cQ/BZ3bJwUZ7NCCpOIcEuKve7GiHNFweL47w0F/Lm/5JnOIFqVivEvzt22+MjWBI6bkcJRHQkc2J7ErKSGrF5uzB0b0wb3BRs5bfYKMJzcy92VaMYsG1sLNp4eLeKhgSIeGCzi0ZEirJqVq6oX4bgO/HhTAeuKHO+ak3SnS+xuDAY8NWzi2+sK2Fyy/Vae8oHwWrUzzjEnqeGYjiSO70rjiLYE9ska6EiUp384ledYkt6n1JsGljPg1WDgfVk3CGpn0cLanImHB4v4zdYcnhgzMeaY46y6/Jy306EYJ69MJbpmVQ4XLUhj0SQEBPHAJ9l7HjVmT0qzGSGF2ZTIAnqgaLC8EaST30g4luU31xRw14ApmSTPFA18JZ1pY/9WA59c3I5z+1rcXcryFi/vVsaBoqMqbYVy81pSAJKahvlZDQszBt46p8Vt02/aNIrPvzyC55xW3jfPkwWjPWv5MRQB/O+2otsRuGxRuiFLc2LdkjoJBlfea1bnkeeItchA7V5soEUDvrisA+fPa3VX6Rm3eHmj8Io+LTj/qy4zKApbrYPK8c6E7v47vDOFixe34+XREr64ehg/3pwrp9U8F/rmGvGA5bs6b+PiF3L4z30z2CerT+JoYhxPhniju/qUiFcqpDCbmrAox8p37v2OSW0sHOX29TV5d4qGNPyMS2TlHC2M4bTuFN41N4sTZ6SRMRjGJbtZM88+n7wylukVv3bMU4Sj23KVOSJnzmnBP/dmcdfOPK7bOIY7BooYs8OGNz0NrMZx586SO176b/PTSMWMXtmVmnUsy/sHTXxtbR6F2lhilDuRuQrwgKyBd/ZlccasDBZnDTc6ddi06/XDKlNeXH1YPuZ8Z7JOlHATJZvDZEBf1sC3V3Th8sUmfrZ5DP+1fgz91TmgXOKW9X6vKP7/WJPDF5dlXWU+OfjHo4PvnBeVJ4ZoFkhhEhVkLk+Z9Tk5mJzj6lU5vDhuS3ZJQfB7JejkrN4Uvri8E/MzCTcqlcuWq+Pej+VG3fnPawCV7yioUHnlYuezk6+uMbymJ4N/npnFulwJVzw/hN9sz1eMTNU4V9kC5Yy7gStbSjl8fmnGDZKZKhzJb91WwvWbiihANgYseX42x6kzkrhkcRtO6Ey592rxSn0yBDoTonKUKkt4L6nXvXO9VTnelzFwxZIOfGBBG36+qaw41+StSqdJptjrxzYXgU+/lMOn9slgVmqSp/Eol06UdTpIaTYjNK2kqZE1eN4GVuaKUl0XnwQDbttewovjlpCVKggE6GAMv1zZhZ8d0oOZKcO1oAJNliRmw9uoiyOh/ktZID080jjlzUoZ+MUh3fjR/p3oCIxNyhRTebzv+THLvd/EFOlLJ9v7B0z8YEMB+ciUlZFHm+P1XSncekQvXtWVrs2FrCHoDl75rzG51DfsdJjaDQ0XLmrHnUf24qj2RF2jeuUUXeAMWF/guPiFcQyYu6oumfBWiOPn4hCFmJ5oNkhhNi1cElyDGG5aXu6JT7DNcF64vw1b7oR/v2UJeQ/e5ji+1cAfDu/B6XOy8cYDGzUAakZs3bpETUnUcb7lbeAd81rxh8N63Chc2HaI6676leGmrUU8MWJNyQ9u3LRdy1I+ZcRbt2WX6kyd4QtL23D9wV0o2XVvqLjIkC9IqmalByvWd0z6XgSvqtZx0eboTem4/YheXL2kFWkuumclblDGkbM4frihMIn1GfVbgFCXe8LEIWJ3QwqzKRF71cI595DKPSUb64nPFjficdxdYs6fryhLeWzt7Jlp3H3MTBzckSyPy8lupYpEb9WaapVB6DvEatnU3IkSo6LAOQ7qSOCuY3pxRm+m0nYGol98jNjA51aNY9skb3eS1IBfbSthW0k1BgjBtc3x4xVduGSfDjfQSfYUVN9RqSNR/YVZkjwyRWUmkMbwiSWd+OOh3ejURCtO9tyZu2D8L7cUJ2i5K95tn2dF5vEgV2wzQwqz6REbVi4E+sj+Tcy81AHcsKkAU+nWqpeRBseH52bx7QNmuIE2lqSdqo5JBuwXjyGgsooCt+mzMP2BLXWjmlWHUmFzhpwFfG/FDHywL4uUL3PRpVj+V+IMP91UmDTXrPPjfWrYwp/6S55OjqwiysFS+2cM3HVkL07sSbsRvP6U8RUBk4zF8nolKmSIoLLp97HdaVx/YBeyUlc9/O8fA27aUsDfhszYstfzU3lYED1m6d4/NZ3NCD31pkTViKnGNHe9hTcYcM/OEu5zGjcmk8Mf4PPhuS349oFdSOtaWfGpDGGZ/SIYrP7gnmAyqPKpKgcmjGJ5jOyMruF7B3W5StPv0xTHvcp/7h003XpodMk3WfIh08Y1q3Pl5QNrqcRxv3LATZoBN67swmHtKelC8d5o2CpKVScEVYW9HmKdRinmIgde05PGZYtaK70k0XL2eyEsxvCLLcXyZuKxEZ+TbEhATCuWT+OYzQgpzKZGNkYkaeiVYznxWZuz8N0NBUVZXmXJcEiLgSuWtGOkxP1FMo9d4DWeqqONVRes0P65Z3ndegwLYKlfWreYqteqrKjhEscnl3bg4BbDs3yceH/1v/+1voCNOSt23UmKdBXELdtK7jzJcNchx8IUw58P78W+bQm5f0DyaMMUm7f+mESBhCtFuaLx1q2jNC9e1IarFrd6LHdRqdWPPzdu4akRawIqTAz2kbmzJdao+4wbe37E3gEpzKYkrAftbZhEF+zEetXOS/bjDQWMcwiBPoJLjHMc1qLj5kN6XMtS5moNDCly+KYuSK1EXxCPZ6pDLQvuSSv7xHx/RZyrHXlvPqQbh7pKU3Z/1fFfhjEOXLtx4gErznWPD5r43faiZKszvxJoZQy/OaQHB7Una25tpQvblxMT3hLuUZRMMuXEf60KlbKuus7Lz8e5R4bPLOvEfy7rqC+UEKDSkWEM127IN7THqvd6v2QyZSkZyKamsymhp97UCPYGQzDwRhUKEqE7vad3FG08PibukhHMf3ZCw+1HzMTslF45O0G/peQyxipqUjL+FhjnlK2GJyBrauekDfzv4b2YmdAUa+HWFejjI7ZbLxNh3AL+c30eJYUF6xXy/XOz7hqw3PeY41qD9Vtg3v9Y/dq4Y5/SdMxr0QZlK9oc757fivNmpT1BqXKPyOq8jd9tU7tm5a+Gymui8qwQzQ4pzKZGcDfFGbQKOSQ7rTO4K97wQP6CYrY5PrW4zV21x/IkrDa0UQ2zzBVbc9EyQNM06IYOQzeg67r73duKiuOcXCKD97PM+rI4R1tSw6cXtwGWHVpRTnqnXvTQu5Jz/0ARw6ZqfK/uNlyZNXDRojaYoiHfgEu97P72PwOnrpz6M4wEEkYChmG43xudpyn0UaQdJMe4/NaKLhzdnpBk4LlfBneq0ua8vBMS7FLIxi4h/CYIwg8pzKbE21CoetCipTkxGHcUphmeB+c4tiOB8+e1uI27LIintlKPUtqgWegoxtaWViQTKQwPj2Dj+g1YvXo1Nm7YgOGRESSTKWRbsm46oThfEIw37+pnnxuXVV2UzJ3X+K55LTiiPVmpZiZ36TGGu3aaDf8AHUnvHTAl3gA/rRrDTQd3ozvpvTdh3FFczUcC86RxFGNra6tbb8Ojo1i3di1Wv/wy1q1bh5HRUbeuW1pb3I6J2OmoWvZRQUIiNrh77VWL24VOSDAIJ2dzd2nA+Ovdq8broXDRyq4lmglaGq9pUSlNMfhB1ZBE4zRc/7e9hM1FO7SB70vq+OmBXfVpG9WG3VFEnHmNiHAnGa9bkmvXrMVDDz2ERx9+BH//+xMYHhrC+Pg4LNOErhuuomzvaMdBBx+CI486CsccewwWLFgAy7Rg23YlO15fj9Yz/lc+VlGcvJ6meovOffzswC68+pHt2GKqxoE5NhU5/tRfxCndydjT4HcUbTw7btVvWPasOMe7+lqwpMVwp2rUlHxlVfqakgx4cINrw2pMc+dIrt+wAX998EH8+fY/Yc2a1RgdGcHY2Chsy3Y7HNmWFsyeMxtLly7DMccdi6OPPgZ9fX1uXXLOPc9QtaC+7zHWaqoqz4ndKZwzK4NfVpcl9N0zrz2PBwZLOHNWMkZNigFSTBE0JfvMyAJtUkhhNi2i2pEpTvFzY73qgsXxi62FyviZSikD58xKoy+TcBfphtcC8o5vMc+uUBKcxj6ZTGJwcAjf/MY38OubbsLIyDAy6Qw0x4KstHHM3ZrKchv80ZFRbFi3Hr/+5U1oa2vHmeeci4s+dhE6OjpQKpYkUyLq453KIKPKmqnzsgbOnZ3BN9aPKXYMKefzi60lnDAjCUNmarKg2/KpUctdGD24jq3/6/vnt8Ddg7vSCanXHVPnL+wOk0wlMT6ew3/+x3/gp9ddB7NUQjqTcTfhrl2jaa5SdOrzxZFhvPDc8/j1zTcjk8ngvPe8B5dedhkSCQPFYlFuzUp0D5Oc0xnDfx0wA3c/sBVbTdX7yPBy3sbzoxb2bY2zDZjoyhbdsSGD4kRTQi7ZpkVUiMHGx9+QND628/yYhZ0lcZzI0zBxuAsU/MuclpqyVLWpTCxWSFcsFHH9T67HWWecgRt+ch1M00RLS2tZWSrhrkXqpHPSO9eddcZbcOMNN7oNvEwOeBS6KJJ3fLPIOd45J+vOf1SGbzK4K/88P6aYoiBcltAYHvbNY/VKVu9kXLqwFUuzCY9MkvFYJhm2rp7Sysr8uh/9GK899VTccN11SBgGstmsT1mWr/GOCrJKfba4yve6a691r//ZDTcG3N6qe/TJ6Dlng6PF0PC2WZlAAJVXszqv0Q1bCu54cjSqMUyv1S6+81GuWmJvhhRm0xLlduKKXnc8Egy40x1rY4LCrZevgeOryzqwf5snoEPiJlTBK1bR1m3bcPaZZ+ILn/sctmzZglQyVQ7qEROH4KRPpVLYvHkTrrn6aje/bdu31aNqWV2egH3jHd+sHuIM+7cl8aUl7ZUfGZf8K1uK9wyUIifeO6e35C08PmIpGvTyv0NbDfz7so7aLEFxCo131xZImn9N13Dffffjtae+Bl/8/OcxsHMnEomENLo4VF7G3Ou2bd2Kz119NS675OMYGxsPPpeYb5Yjd4EDH1nQipQ4Huy9E8bw5KiFl8bjLjqskoaFWJhkcTYrpDCbGlFRQrAomZDW8y9GA/+CazmJlmW9zL6UjvfMa4UlDPH550UKLkTUs9MqjfLll16KdWvXIJFMhA2VCnkw6XGnPCfPtWtW4/KPX1pXFp4xuIB9KTNAKmukvm9BK+a602SYr1H3Jv7HmB35Q3TO37nTRC6wmpDnH2d4Y09GqYD80b7ifZetxYGdA7j4gguwY/t2996liMpT5Zyo4OTzh1tuwdvOORsjoyPhNyoJRPK+oXMzBg5pNRD6oCubaEcH/8g6gjILUvgc+ZIReyukMAnFuI1oZQrpQ8yCqrLcGjrPkOOfPGN3XHDtqdojb6M/NDyMd59/Hh5/9FE3OEXqYQtmIE8kfHXy+9ujj+K9734PhkeGJRnJZazdR+WcoWs4aUbSvwKQUNa2UtkiCvsxFm2OuwdLqJuHYmNfXvD21O6UdN1deDofdX3GffJyxvDpT3wSJYk7WrhJ4bt4PngsmUxizcsv49+v/mzATc7C8hLOO/f2T92pymIGqgfN3Pcv3pQd0QUrlirpDTS+QgKxl0AKsymJMAmUxxDLgea8VA8NmpU1S0VXLK+akTi5O+262eB1FQrJVEUnkkn89Cc/wYP3PeBOd5gQEUaCk+9999ztluNYr4E7lzbu/t1cCjbHSV3p0AJLNvDokCmPDarQX+LYkLcFF7enoefA4oyOFW2J0PviAWnLiXVdx1e/8hX85Y4/B92mUcaU6lWB3xp1LM0/3nILvv/d7wWfmUw/yTokAE5x6tOWvSCoaeuXFfMxg4WKLliZ9idrkihDCrMpkQXiqHvrjY5fljjHoyPiDhL+Rsfp/R9Sm6voSRFRVDWw5Pnnn8cvfnYjEimF2zBYZPBYjNtyLKOf3/gzPP/cC9Al429ShP7Bke3JirWjbnz/OmzCVC4BB6zLW/LMXcrP6PzZGWR1LXQcmAVcs+V5jvfdc285uEfmho2qp7DXR7DGnPy/881v4NFHHhGScd/YavVS2Rj20hYDs1K6sG6v9w4ZdpZst4MRruq4xLoMG68ky7LZIYXZtIgNhMycExvneA2GYw2tzsmWwqt/XpDWsTATf50bb8O5fft2vOe88zAyPBLT/RpxTFUFlWMjw8N433vfgx39O2LL62VRVsf82jimpE4Zw8s5y603GToDVo3ZClOufE2HruH8uS3l6NDAECML+c5gc+5OHXGsvkaDeypZxE/Kyh2er375K76yxLVrUbvbYOYzkjreNTsjKbz+jhYcq33QjOwzyY8qXN6+pKQ8mxFSmE1LhO/L1ziH9bqDDBQ47FAXF3BA1nDn1sUSTzh2zz33oH/7dmnE5YSQjX3WDI9yA79182bcc/c9AbkiV65h5TmE+2V1IWPmcwM6xuWAYszXucstpbByuKuQ52cT5aXLG2jLDUPHbbfdhheff14qe2hnol68BBZ63TPPPI1NmzcHktezDF+n9tTejEKAusB/H5PvYMIjZWQSF63nOw+5MWKvhhRmUxMWEcglmkSWPshW0xYChoSgIg7MzxjSieWqLbS8Y2133fkXdwxzQsRt54TgoGQqiXvvvhuaJgasMHl77bncuc+FGUPIPFiH2xUWpsOgT5l667b8b0nW8Hk/o7bnqpLL5fDD739flTBeIJXyYvV13LbxwH33KzejFqfDuFS+WgBWZA10G6JVyHwCby3YbrBUuIxccO0KnwO765CibGZIYRKSnjQE5RhljfrPlvexFK/xN26L07o02NC3kbHEODVNE/94+pnKxs4RjVfcmKUYhrQj11NPPgnbshrO3zm0MK17znnqltW/D5tcaVhvt7wNerDj0pfWfRt6eCONuXCP3nMb1m/AP55+urywwFToAsUzcsp77LFH3GAq4VYkeQgdAA70pg10JESr3aM0GTBgcuRirTkomtIembloYRLNDCnMpiRsZCdGjzwsZwaMmCE9dlQbPD28JMXJ/v5+7OzvD08Ef3GRqKwowXLs79+B/p39cQ3t+qbWHOhJi5tLo2ZtVxl1FKbk0ThWUt4SvQD+Rr0vocHkXHo/0iG3yvcXXnjBXd4uzv1MCHmvyOWlF1+SXiKNmIZ/6pHDPOVqD+XjYxZ3o5TDUQ0bqAbAaeyymSGF2ZSIyszbsqosQxarl+28UKM2JNMf/I18t64FpIFQsoytW7ehVCrFustJwSOIU+62rduCxrjiOq9LsdcQzVjR3cgwbMl/kCUbsLnMAqo39h1JTTm0JlpnNfkYw/p166HrklKZxzoM619FvRIhVvi2LVsxMDDoLsUXdZnMRduR0ESBfd+dYqrBxXIRZc+CR4/fk6HZtJDCbGqEhsI3bidaNPF71/nApPLgda26XAr4ruKe/TDLDI8MT6y9iuNVDnOx8vJ6toNDQ75zKjtE/NIaUArB+ixIrDHmbhjN62vtBq4r55s2tPI0DKnVLdWirsIcHBwAY5JmgHusw7CbVL0WMazwQrGAgYEBT5aBgetQ0rUV62XvGvflGTai678mxttFRmbTQgqz6REtxzDzKboxYahujl+1TsQee/zgCa9VUXXSjY2MRI9dygjX3+rjgqKtjmF6a0nc5FrmAg0sWi4xzcywQFjpCR74JlslKeA4qB7XGAZ37px4tHHYY4ihVCzLRCGf9zxjf4bVeZiqeNmEtBPiP5ZXLXvkI8zSRMj4PtFskMIkKohWS9CKieOLDJzhckUh3Q466FXzf2FAJpuN0RqHNGiNxm4IRQkr35U/x1Dg4q3Esdp9+XJZTv7zASnE9l/AsUYz2ZbAcn7SPGT32Igukh5j5fFTRfUxT6eJSSxQxgJCCu8oQypyQVmVKSweF3tccXcwJfYmSGE2JUzp2pM3PpBYiHLsyk4ldeQRNUVb4oLjVTen3xVYtTCcdj2VTse4v5CWfFfiNjjQ0pIVDnGla9ZL3rYl4jHfs8ho/m5EdfUbgzkWangJlmAQcfjrzy9xpT5tjo4ZnbUNs8NdrxOstJA8k8mku/eoI4fUhgxYysyXbqwoW/3If5G6LyP+BlT+ePH3UE1PTWczQk+9qZEFdcjGc+JEudRTZrXoAcMhm8t3IhF3q2CoWRjOv5kzZ8YVJZBv44gtNkNvb6+QgtVSyu6nqp4GarNRhN0uqoqQM2SCq9q5pHUGIzDO6LdQR0uSSfrMI6PHUvRabL09PXWFKXtsjdRbI2PDAFpbW9E7s7e+IXftzoIdpmo+XqU5bkW9lxxJpYUpDhUgpCflrQxyyzYzpDCbkhBzpIZsfCh67NFpetsDK94Fr9sirmojN0R936sNfGtbe3x3oCrfWPgvamtrR3dPd0OXVtXTtmJ9h8rgeGq5bto0uSHnKMx6QKj8Oe0oWvWVk2ReRoVncemyZfW5pbsazOIz9GTuZL/YixYthqEbgfOiJSld2o8B20qiW5T7/iUYQzK0hVN5WbzfeYhblmg2SGE2PWE9bC70xGNYmBxoS4imknCdBmzPm/WZJ3ElZQytbW2YN2++MuuA+GI6WZlR3ysHFyxcgNbWNnmeIdc797k9b3mOy13drUlNOTLWqYsFeG6EMawrchie7P1PVb3uz7Jly9De2Vkex1TpC4T6NoPXVIVQpmHuSj8rDlypXAhCtoasN03etLFFVJg1y738b4YB180dQ1gJMuuVrMpmhxQmUSFMKXp72NE96y4jKi3DSzmr/PJFGbaCGE5De8zxx8Fq1CoKszRDrNoqllXC0cceC9u2ovMUvjv3uSpnChtHBwvpVk7EB2YkwhvrTW7+8nPMW56QpnNGJ173hjfU69NzlTCgGlp+PZ3wV5qGw7JsHHvcce7KTYFrI/J36nP1eAnDpu25kPsDzDhHZ0ILCfqJcq3Kn1FjwhJ7G6QwiQqqlk42bhPeePelZeNt/s9PjBTldg8Pl8a2bZxz7jlIZzKKOYcxaOQyBtjcdi3bc972NtjCyjFha7bW0nCOJ0bFxRb8NqBTY30p+c/RUQvz0rpHaQXLfGrMdK1YJjnvGyMUtsxyZLvyE1dhwcKFotR+MSfZuFqybCkOP+Jwaf2p6rT6vB0d+NutOYzbEDwg/k7a0W061Aam2KEL6/3IvDBkbTYjpDAJD1GNP4/R8wY6DQ297qCb2NrWG5/1Bbuy5qwcT4xKxdipp124cCEuuOjisnUSZiDIzsVxLQrto2Va+NAFH8X8efN88ToQ1mWV3wAwVOJYVxAtOE8BYOhJaOgw5I5Ii3s7IaxasK+R32naeHCw4G4FJgpUnZ5SXarPJzMHspkM3nTGGTCLpXoRMaxuJar6qBwvFgp461lnuXNTHdk4FO5Y0bVdOVCyOX6zo+APnhILYcDy9gluLO5TimJl0Eo/zQwpzKZE1iLGH6eMIqNXtrPiXOjJ1/Mes238Q7C6lBYn949pmSUT551/Ho48+uh6hKfsOunxiO24hGud/I865hicd9476+7DOMrEY7A8M1byLAIu1klZpv1adDe4RyX2Ap/1Kd9i6vqNY+X9MD01ycF9AUgyQ8rpEJx9ztlYtM8SdzGBXY5tUdUHLy9WsOLAg/DmM97iWVo3zpJJddblzMC7I17UoTMsTcvHhMMff4zfAHljmxZSmE1L0IU1mT3n42cYEUpYw72DhZrLLM48PN9xzvHxyy9HPpdX70mpiM4MeNkUcM5RLBbx8csud92ysfIXZNc1hnt3FoQTQYv7xK5wa2hWSkNWDxGaAbcPFLClYAc6RHHa996eXvzgRz9EtqU1PGHUkGDotQwdM7rccjo7OmrXKa10Me/K30eGSijx8IfodDBaFWPC3JdxTBdr4DQtXNCMkMJsagSXk2w3jUD6aG3jpDiwTYffIyYqZ447+wtI1jxokv0PFS19dSzrwJUr8Z0f/MCNXI09nhknKKVyurWtDd/5/g+wcuUKZdSmcgyzcjjBOe5yFKZ0abwyHQbDAS16aBPcZjAc1Cobx6w/D0dX3r8zX3mqTFKSGsuyMG/ePHzi05+WBAAF78t/J9GbVjuWuiPHpz7zGXR1dQUXS+AhRXjSOH2G23bkAOVyfmVZFmc0hNyFpKSI3k/gNPllmxFSmE2Jyv8lWj9c8jl6DNM5224wHNwamJDpu/a+oSJu3jReGXeTB3+I67R6cRrd0047DdfdcAM6O2eEN/QN4OQzo6sLP7nhBrzmNafCsi2lDGE4Bs4vNo/hgeGionEu1/UhrbrSGvLyzjmpykR8cdyukp/G8MONY765h8rpGZL7KZVKePMZb8Y1X/yiuwqPL4I1hKh6cfI57Mgj8Yfbb8frXv86WGH5MtSevDf/6rftBQu39BdqZ+p//Z+P6jAQvoysd9CUyz0uHgmCn0lhNiOkMJsSmbUTdkzeOIStoWpy4MBW7x6QTLBoGRyb45OrhpEzy25ELkRm+q1Or8VUD+ywbQvLli3F93/4Q3R2dbmLece+ZUmafD6Pru5u/ODaa7F06VJXefpXyhEvkbsTnTsZN218+qUR2IH6Zb6EB7YZCIl/quW3OKtjQVomSD3/B4dL+OvOPPTwZP6Tnj+2ZePMs87Er377W8ydPx+FQiFcMLEMAed57LN0Kb73gx9g9uxZbv7Be+O+fhpjTLCQKys9MeAv/XnkbFFpeW6MM7QnNOyTlXXW/KV6r4l/g+G/CWLvhhRmUxI3wsIboMIC6cLcoFW3bCJsdQIGrM1b+MN2wY0oiUcSc/AGsziN8P777Yc//O//4sKPXYKe3l7XWnKUHVdtUcXr+TjpnPQ9PTNx0SWX4JY//hHL91vuWrDeZdoCrsequJJqcBTWH7bnytGx0tsvy59kHCullngQk3Mc2maETi9xbOGPPj+EUVOyPqxqyFrQP6ViCYsWLcINP/sZPnThhZg5a5arON2AIATvXxTDsSgLxSJmz5mDSy67DNdd/1OkUknlVE53ZR9xdzkJBoAbNo9HRDpznNFthI/31oQXhxdYDEuzepzGMJsRUphNjdAoBNoYMWgnZrRMhb6UhuM6DIlG8bsRf7RhFC2yBk7RIMNr3VbOOUqvtbUVF118EW674w5ccvnl6Jk5E+PjY67VaJplBeooQcu23O/O8fGxcTfdx6+4Arfd8Wd89KKL3Hyq7l3VFAd/9GmQrMbwww1jUE8ELB9/VWcCcxTzL0UsDhzdETFVgjE8OWriNqcT4q0icRhOMM64EKnqKL3u7m5ceuml+O0tt+Bjl16KWXP6MDIy7NZbySzBNiv1WelwjI+PY3h4GPPmL8BVn/oUfnfrrfjQBR9BZ2d5gXXlm1PpECn1ICtv5XXr1hzuHCyG3n6HwfCGmakYznMeMryg6uR5K41CZZuRiU5UIl7RKNxKXLQkvedjRst4cPrg585J4uHhEnLSoInywfuHS/jWmhG8b0Grf9wp0k1Zn5BftQQdS0jTGD7wwQ/g7e94O1a9tApPPP441m9Yj+HBYVi2CU0z0NHRjnnz5+PQQw/FkqVL3MAhd3/GqguSB6vGb4swpSyO7nfu54GRkqQO65ZNRgPOnp1syFZZmNbQm2DYbqqeT7kT8q11IzhjVqay2Hpd/qqcjuVd+1t1gTIx+Ia7yjGTzeLDH7kA73jnO/H3J57ASy++gE2bNmNgYNB1ieu67gby7Lt8XyzfdzkWLl7s1q9ZMlEsFAP1FKjBkFfLPcQ51o6b+Mhzg5Ia8UcLHd7mWJeIdHGrkY1Risca6zgSew+kMJsSVWuiGGcLfI/XGvFKA39Im4EHh8WAnHqjYzHg4heG8OquFJa0JGLlHZS2/s2xZkrFEtLpNFasWIGDDz4YiYQBXTfKE+U5d61MJ41ZmXdYKhWFHTPCa6OerrIYAGe1a14YLbn3E7Qu/W7AQ9t0zM9obnRrXBxL65iOBG7pl60cVM/70RET17w0hGuWd7pbqTGhnqr1oJqb6U3LbRvFYsFd4OC4447Dq171KhgJA4Zh1BZKd5VjqVReOpDDnY4jd61HR9SKd5XRNXxr3VC5k8BkHRDUXNyv7kpEKsvGVR2NYRJlyCXbtHBF9Ktq/GZiFDlwaldCkaV/QO2aVUMwam5E2WCbeGnE/L1KFqZpIpfLY3R0FCMjI+7f3HiuHAXKJYU0sJiLa5tVgkZYJTL2cy8NhWRQqWfO8ZruREPKEhWr/eQuA3pgCpCg4jXg6+vH8MdtOeUQalgErVTsyrh1ya3PHEZHKvU5MopcPldeSF20zD1Rzn6ReSCN+BmV+vzz9hxudMcuoRhXL3/dv1V3p+dEwX2fJuJeJWXZrJDCbFpUYZSQDB5OXIk6Vx3eYWB5VgvPgzH8Znseb/3bDoyZtr8xDyt6knQ7Q/iYaZyiR0s2Tn9sO37bX513qfY17teiuRbmRNgnq+PCBWloEXKajOGD/xjA5rwiWEcg9Cl7YqeYJDpY3JKrPr7Lan+Z4JL1Xit+dtI5yvI3W8Zx+hP9GOKSaCsPs5MMVy/JwAjdnUQkbAxTRbWWKOinGSGF2azUNIQsIAdCD14Mgmish+3k9KbehNDGSAIrNA237SzgCy8Pe/Z/jFlkSIxGpP7ze/Uk8stz8HoHHXm/sHoYdwwWhV1JEKxnGzi9NwUed8ssAacaX9uTxAEtRl1whQt9hwl88sUhtBn1CvVGN3OPmKpQF+51PUOeSNwEWhDD8zVwQBpQ5Si+waKFK18YghmYeypkzDle35NEuiFlKQogG7sMY2KdHeKVDSnMZoVDcElxwSISLaRdszaP6jBwWCBiVrTAeG3y/f39edfCqDXoUUVKDBDOqw15NYliZ0jR+xvSyMusKEcX3d2fx482jknG2IT64hxHdBg4IrjLdkPkbY4zZyXAAhHI4kAkdy339z/dj4I7TUa06KLrtmZR8qprtW5uVutDDL6KQ+0VFJ6dBoanh0o4+ZHt2FCyBTcuC1zUrjOc0pWYgM0XUXfS79W6m5xFMohXFqQwmxqZJSQ7L/ncYGc+oTF8clEaXQkxT9E64siB4X1PD2BH3iovnVdrn4MrwNQ/S+6OBd19TBirDNxaCLKyHctyy7iFf3t6ADmpT5f5zKjeBMMnF6eVrsO41eq6utsNvKEnqXYSVOrWYk4nZByffmnYnXbRSKGhi0kwr6KsHBKs5qpyFRWptyPjK6uS7N1P9eOFgi10QJjPKVwpAK/rTqAtYr9Qbw5Makszf1m+dyMQDUUWZpNCCrOpEYN+VOfgD7TgCt9lREmGzvCO2UlhzVrRHVb+vrZk45iHtuHWbTlUpynKVoCBTHqPwco9/0mFQgzDwlNedazOKS9VmRvoyLnW3f1frEuvAuWAzfH22Sl32ktYPcXFBPDeuSlPoEu1ZyF5dhXL/V1P9mO4ZPkDeBWFhgXjiP5r5jvMPceZ76943JurwRgKlo0Ln9mJ5/JWhDejHDi1JKPhDTMTsBsYd+bed1lxPzXXBvdLXT83SYPnxCsKUphNDZNYizxgFQW+T2zozZ1jeVp3EifPEKNmRcus3NvfbHGc9/RO3LxhDBmNyYfqVLdV+1hpsMPGC73DYVDsfCLkmdE0/HzDqCvfdi5Od0DwfjhwSpeBU7oTEWucNggD3tWX8syhFa2neqWZYLh+Sw7nPbnTTR61fK3XmmTcb31xIciHe16VRqJvWWXRBJ0BWwsWjn9oG36yJVffCFXq9Sjfk2Mtf35pFu3GZDRjEc8vMi3RDJDCbFpUZpWqMZicVt6xwz6yIFVemD2wxFtw/K/AgfOfHcRH/7HTtYwMFmOcLOBBYzUDIupa5TzB6niluyG0hQv+sRPveXbQlS9o0QkXco5D2nRcsCA9JXbJ8hYdp8yQrKjExI5IWbHfNVTAUQ9swR+25RDTk1m5uj52ycRxS87rhlcDebJKI+RY6m98bDtezFmeVkkcO/ce5nj/3BSyhnoP0UbuLPy7eJysy2aFFGbT4jOrIP/ibSBk43ONw92FaBiuXJxxl84Lri7kla9saXKN4XubxrHsvq248tlB5C0ejKL1lcEVliKvuVRlwTs+BOPGKW/ctHDlcwNYdt8W/GDTWPnXExnpyjA/peHKReVVd6aiqXU6IR9ekMZbe5MwfK5z8UaqHgINzxVsnPPkTnzgqZ14eazkdgSi70Qx7srqzmqXGP0ZjQGmbeOWreM48aHteNtTO/Fs3q4s9iBGefm1cHeC4YvLsjhhxq5a61wSSMSF+pINTRDNCinMpkRskKCIgGk8uCcuKZ3hogVpoY0KKY8BeXB8a8MYXv/odjwzVESrzqRLtdbGOmWGKwsGrsjKqsrl5N+iMzw1WMTrHtuBb20YR8GNJtI88irch04eNsdHF2aQjFwMXC1OHJxOyAfmp3ByZ6LuHw3LjJW11g3bcjj0wa3uYguOtZkRK1TmFRWF5SHSSw5ldYa8ZeMtj/fjX/4+gMfHTMWau5KBVs7xkXlpHNAavn+oomjhrHeYIcwFLHY4onMn9k5oabymRN17DxyvWSlVZMp2Yixv0fH/9s3i62vy2F7inqxVMrlzDvD4qInjH92O185I4dw5jqWRwsy07lobtsw7WsnOHYeL4X3TKlNFtuYt3LuzgJu2jOP2gYK7xBw0bx5cvTUU5+hNarh4QRrLslrsKQ+7UrPjNvCeeSm3rDsHSpVtxRQlcFb3reoavrx2FL/aksNZszJ43/wWzE8b7sQJM0yoOMJWinAsWJMDTw8X8cutOdyyLYdVecszkBrmaagryzN6Eu70pDiWZXgS7hsPDXg6mMw1701DCxc0I6Qwm5Iws0FEbLzQUO86TL06Tc7KVh2XLU7j8hfGI8a/PCc0hiKAW3YWcMuOPGYlNXx2STvOmtOCnqTmKrYi5/7IybDWs6yH3ahXx8raVrDw6y3j+OyqEWwr2OUZBE4DGlhaR60sHa5YnMFSR1nuRi9eWme4dJ80UmuAP+4oVXxIYocHwveyglhVtFzF+Z0Nozh7VgYfnNuKo2akXN3qVINpK0aAJQ/ZqS6DMTfCuWBx/H7LOL6xbhQPDhXLnQ63PkVlyYPBZVVFZnO8sSeB98xLT+IMSLFcT/lSZRn2nWgGSGE2Jaqolijfm+raxkry4lgK+2Z1fGu/FvzXuhyeHRfn3nn9qtzfOjvpdIatJseHnhvEv788ggOyBla2J3BIawL7tCQwK8EwI2kgqZX1nuZuXM3dcoscGCia2FDiWDdawt/HTDw9XMDTYxa2ley6aRQYxwrB5ti/RcOFC8tjtLtTWVbJWcC756bQZjD8flsRucCzlT3ryjGNY9QGfrxpHD/fksOyjIEVrQkc2pbA8tYElmZ0dCZ1d1Udp2r0Sj4W5259jpk2+os21hcsPDtawpMjRTw5UsKzOaus+6rKUjpWKBGJO50Yjrf1JXHW7NQk1yeTBPKE1I1vjJZGs5oRUphEBVVQjyqsf/JwLM25aQ3XLMviT/0l/GpLEf21nSlU463c/5Vp2GJybBku4i9DJV/EaFIHOhhzx+d0VlbSOZtjyOZlN6vXsKkqa01VnqJjwTm6DYa3z03hxO4EdMam1WlnaAz/0pfCq2cY+H8v57HJu2VJFKys1PIAnspZeGrcxC+25WrWnq4xtLDynp+ZigWbr9RnzvYsvecdl3bzlHkrFN8rrvlj2g18cF4KM5La5E7HqRXCJJ0ynxAEUYMUZlPi3ftQ7O1j2gIaNMbwht4kDmrVcenzOeQC8sjGUiUNr1fxVXZM2V4JwAlYNqGGgiLvQPvKkWXMVfjz0po7Vrcn4MjRl9bxpWUZfPblPF4et4TgGtln5j/Eq8qu/r5YAIY5MOzUp+sf5d6BYokFKStPxHM9Z9BRXuThnNlJdxx16jofUQO0UfVFNBPkV2hKeHDOXiPXTiFOIz8vo+MLyzI4uk1HAtwfZBMpl/dvmCtVPC9+V1jW3uxsIAmOo9sM/L9lGcxN7TnKsoojTntCw1f3zeBf56bQq0Myb1RhWYUaW1y+olDD0nF/4I0NzEkAn12ScTcfNxvMsTFUCpCHjPOHDrQTezmkMJsSsTHwREy6RDWEU9tgWBxYlNVdi+1jC9LlOZe2132mcqGhbgVGjseGTR9Q4TlvczeS9pKFaXxuWdaVVxaMMlU1FZaveM5GearNW2Yl8d0VrTi+wyhbhsots2SrP8lyZhH1KctDdj2rJXFk+8q+WRzYZkRuBD05yNz+jdQu0UyQS7ZpEcdvvB8n0vhNLk4JoxbH8V0JrGjT8ef+Eu7aaWJ9ngu6TaI0ORTBQuJx1fioNyPmt4A43IUITu5O4jXdBjoMDWMhg2tTVVNxbG2RYmU5vI8vSuN1PRZu21HCg0MmrKor1BfYEmZdiX+ryIJoVAE0lc92eV7moW06/rkngZXtRtXQ3A2o3K7i8TBrnGgmSGE2K0wyx5LBP+mdh1gWu6mj7eiiNkPDObNTOHd2Cr/bVsR1Gwso2dwzHsf8rr2AzGGutzCqlk9ZWSYYw3vmJXH6zKR7ZakyhDdVTehU5OsqIsawss1wN/a+q7+E6zYXsa0gdkQESbzvRqCOZZ0QVT1X65S7s3SO6jDctXD3adExbvEpCOwJI+odUb1PRLNCCrNZqVlhnsaByywMsQGUjOXtBqruuTfNTOKIdgMPD1t4YriE58dtjJo8EOhTJo5FJOK3JlsNhv2yGg7tSOCINg1z0rory+6IpZzKKubunprACV0Jd3/Of4xa+OuQ6f5dn7fBGfe7tqVWOzzfYxTIOXQNmJfUXJfra3uSWFAOsw210qcOWYdQpiRlHhfaD7MZIYW5Gzi2tVV7dW/HHM7RA/AMK6ujQc7Yxi+v3jg6fZLJgj1Ubijx/PTg6MbelIY39mo4Y2YCBZtjY57j8WETL45b2FKwsbnE3fVmy3P2Ks493/hs8KPTkKc0hr6EhtkpDctadBzabqAvxdzjZkVJ7s6gHsZ2ITYrJs79GBrDQe3lDb6dOtuUt7EqZ+G5MQvrczY2F20MWfBMwRGFkgQJMY4kY+7+p7OSGla0GtivRcPCtIbOhOY+D0dHTouerAspfFfcVyDt9P0OPjGvL2Un0AdoM2xuJxmYxYD++waH1t83OFqaFqGaCFKYU8jZB4BdO+fY19qWeSFj7LSUriWMiis0b9swub3jEwv6HrB1dusYw//Mu+Ph/umRVPbjD2sgohsLxlh9Pt4UUHWJaoxhfoZhcTZZUWwcIybHhnEbLxVtbM/b2Jy3sMMM3lGPzjAno6EnpWF5WsOcjI4OHe48w7xddw/unuCTMv562zWnbKNXVzsDs9Ma+tKauxWZo/RGLY4dBRtrczZeyFnoL9jY4XRKhL5Hl84wI8Hc+lyU1rAoo6E7qSGrwU1rVTodtZkouyDrpOArVDKmHxiu8KbbfbNs7zzpJOMg5F6jMesszrWTdA37pDWNaRWPyrhlcc77nuAabvzSy+uv/fLqLUO7TbgmgxzzU8BRXRl2cnvXaz+1ZN4nOMerdOZfVqz6k9MqE8ztsrdqSAMeKzLr/760atP/fXnNpqemTMDfv/Bj2Pa7/dLE+Vy3JD65OOOOge2JVDcRcTondmWJPFvSIDvpdFZ3sPFqMG6DuN5G3QCzTRiFPFIsj8CyBZyDjxbrBWQSYEnJrv0lC3y85ObKWlLlRW3F8sZKgGWXzc+WJJihB+7OOWWVNBTTrbBSGTDTxET3SmGVBXq0qjPSE5TjzVH3pOWoK8g9LUTm7oESvrE2H7KHqey997z/TAe49U2csf9FUyXj5fP7Zms6O/UTS+a+SYd2rGXb8xK6ppluR47XpENFMuddr9T7qlyJ/febn3zme/cPjpDinGT2zBbvFc7vDzrgXTMTqR+PWKbbPlqKgFSnkbbqLXQHYzglA+OUzy5Z8Pmr9pl3WedfHv7m1EsrumAVkYM1+Xe9jyXGIU5JYAtHrWEJS7erS61ZTAdnOmY+/ygW/e4mdA5vQPvb54PpZX8qZwzM+VuyMPqD58AHS+6Dz7x1IRIruzzbjDF3A5Ti3/uR/90690j2/GUwFrWC2/VtyZjGMH7TKpgvjrj5t5y3DPqi1vpNVxV4ycboj1Yhl+rExtPegE0nvQ45rRUGLzZ8j1XlFzVqZ3kvqN7VFPmVd+W9qb/BquCkMI/K1AcBDZx6xKuS0G9Oa9qsUdNCsdI9sWxbetNlb0ttYH1Je1L70h8O3X9l550PnzdlQjYppDAnmfGTjzuCa9aXh0xhynWMyHTnnc/Bdod/dIav5U495n1/6h/873uGRn70H6s3jk2d1NWeMxOCO8QkssCZCZcW+PxKwlFhOi9hyeCDWDD6N7Bv3QX058D6WmGz6u6Q9caVM8BmRi2YxmY6LM+WUq6Tj3HYTHPTwVXoGixHi1bGDJ1UtrvknlFOwzksx+6rpWG1dK7StGykN2zGsl9fh5X7PINNqf2wasZxGEzNhraban6q3PK7kiuXfosz5OCNxp78+/qfQ5a89nXdPRdy4CSL85Zh0woWG4Mxy0KCsbfvOOnIrWf+7fkr7h4epgilSYIWLphEPjZvnlGE9T2LY6bsPPNFHCqoB5doeW4f+Nqezm9evXju41cs6jtw8iSV9aq9+0eG9d/3fC8+i9zUeddwFGHWHMKpa7+Dg7begvbSDldpcSNRjh6qKsuqQqzuz1ndR5Mx1/L0zuPg1feD1f/V9vV0997UKgqY1RcwZ0zYx5FVyq4EOTvl6IYrl2EXsGD4MZy65utYMvQITC0ZUYdTWoXTCgsoRyb5jIix/cmroCsWz+4YOOXo61/X3ft/Rc7fULR5i0/DhbUXCjFKnOuthv7xY7vblk+aoAQpzMkkZfAuG/Z+tqJXrdgcSQ0Hxi3b+YEv+8yS+X/aeeKRVx7f2da565KGuV+5xPUq2oR7tl04lcFGztNoL27DsRuuQ7a4A5aWqBQK/18PzPfseYg/kQUchmWDn/sLaMjIrz9P7li1WgIrt92KFTtuB+PqwJWpjs6dTrj0vW88l13l2O5W7crFfa/71OKFf0kxnFew7Xq9x80+JF0lNmLpLgtK1CCFOYlYgMWAxgeJvEh+wyXOUbT5rKSuffH/Dtv/r8d3ti3ZpTIaHkUMClXam1tUBc4dzxxfhZPXfhutxR2AVg/aUXUvZN+9bu84TTaTpYqsflHxesZKwbH/jj/h4G23KDaZbiZUGiqqgnctSvb4zva22w/e/9ef2WfB/5qcH1aYjH3L5I9yapfjbTJIYU4iWSQGONgL2q74s2TWQ+W7o6QsjuW3H7biZn72sZldK0RSQOCzjPL5witNX06Cj5FDw/Kdd9Xy81qyiskIClnq8vCAquWBfHjg4qBk/hTMFxHLfP+vlMsSWDD8ODLmNE4Dngacuy9a4hGROC+3JMK5AW49dPlXGbQzio10POPM/vIcq/xZNXEpCRFSmJPIv69ZY1s2/wYQ4uuKIuL36059AD90bKf9yCeX7bNswuUoo2NDCvcwUuKvLNtkEizijDWMrtx6WeblP6EVopok71W6TJpC6edV5C26/suLNnHfOfcvtzB77NlAuXszToM3VPL+PFXu2ZA6YZiwS/a4zrbWwZOO/K8E0/7VUZZup0scRpWWpyhScUxnQN6y/3rv0NDqCQlKSCGFOcn03P3ITYyzNaGJxNgC73Eu/IZZMIjFdC1NvuKqBb3fmbCgDBLLUha/KunCMoaNBdtdyLuZ6Mxvhg6z9jzq8a2SfTIlasyL6GZl4hFPHkz2DLg/77An6c+jnpIxDb3jL7tjm68kduW1cxTJphL3eBxk2kjVuYFnTHhi/P6I5RdmDf1DJc6N2k+QezxLMjF4IK4rshLKl+ifemBgdNeGiAgfpDAnGQbYo6b9C0MLeaNlcTOyocRKOlkQizsZn+PUgVOO/v9OmNHe+PQgLv5Kw7qvQUW6Ib/7VjrZE3BUUkuxv7zErGfiOK/8J+trKJtgyXakXLQLPXlwMacGhzQ5h/As65G52dJAyJV7JrviK3Cu3ZS3PN+EgKqoEPZdYHzx3KMztn7JmGXLswwbRuWSfwoq+33f97XhNXfuksBEAFKYU8DXN2z+MechUQGyIUPZDyCsF8kAC1xr1bWPHd/ZdlLjUordV5lg/z973wFnVXH9/52597UtsEuTpS5YAAELIiCogP4SjYldVMSexCQ2QKyBSIyiIUZBReM/iV0Qxd5jBUUQC6iIWOhdgWXZ+t67Zf6fd1+7d+7c8rbAsr4vn+W9d++UM3PnzplT5gxHAMleWx/VUbWH1LLNvU3EJxEI6XXJQAT8rbT8RsTMzGxD5C76QNY5iKS3+3jM24yTSu3DjWXuS6xl+YR4DPlGl12hMGyKciocV9GNdypw050644bePdrGe3V9VQXrYCmqKYd2qqwIpZB1+aFbPt/681rV7gHkGWYzYPraTatUFdfIxCE4ShO4jKfv12oaJpd3uSxnIjNwemMF8pHpUo3G8OZOZY8MoObcJpIDEYjTSDJqT+oS4TxRnZgZM/1vLs8ppRVZaTCZx9/RasxmASWWGtL39Ramjm0++S7ZAy//FEedbi7R6c+pBC+bvxgj2kTGBQntoIukxqZCynZZr2mf/eKL5S80Ycl5pJBnmM2Edh8suUen5CHZSzpq6AuTVtkZcyg5/Ybyrv0bVZD5N2GcBCqaSAjmbothXfTnEUSEgGF3qIxzxbE60gjNi84FCi7ZLxKRLsBWgTcHZTZJKVkO36bWjDV1Gl78KS6wz4ukTCdnoDT899mI0qLQqHZtr4vp/Mk5PpFb+q9vX7fhuHwc2eZBnmE2I25bvekugAvG0lQwlcUY5EnlZadNKi8r8J9ZNGmkPs3nYhLehY9lmKoC4N2dCgJeDoV7CM1dV2W4CzQaEtRLsj5UnADopE62qkyTUX1YNhO3Dca5ZebyM2Wa8xKz0491kqfQ8VPBAaCsZS56mvJ5Binw9k4FGvi+5cEEalieqtxe5qPbth1MQcobNAeIfBsg1gwXSBK217O7/7H2x+oca8nDJ362DHPSQWWBa3t3DTRnHXeu3fy9RsgFEhBtlPpF9JKZykqsWyOEniAzMsxfgczFXsMRykeZ4d7UBbtUbKjXHAfSnpRdmruuOA1hS1F/Qy3rF4wJFLKEV5kyTu2c9QpidncgbrFkl3gTef2EYYxJhQbDbKloqueZGJvf1ej4sFLlhq8TY3RTe+f2Iv+5vHvJlF7dT1AZc9b4evFvt+upTyl5zNcbF6z8dp5v4hqA4W3aSFPLy4Mjy5uzlpaLnx3DXNG/f7By1JApU7p2X/rnnl2+3Dl6yBXNWV/Jux8/yUBe853Bgzk6vVw6waApvbv7dP5xWz2DY6Yih4js524VmLwmirq9exLwHgEFw3ftR6V6wtpexjlveQoTLO0KJBAVeO4qgqekwtswrZB0BWtKhkGRwl4F7fOo1hj+troONbqJy/jwDxBfzM3pRyXaEYyy0a6PVLR+9VO85ZUkW0pYwRmLKqubLRJFxbGHHPPa4D4fT+jVafmLvYc8umPUEX2bq66Wip8Nw7yhvEvP9Yf3u6PXfsVrApTcGqBkQIDQfiFK7q39v2ELJh9W3K+56r511YbbZULc90NxE671nvfbQ0EKQXCUL4KYmxu9yHbpAgJUxnU8sTn2sxhM1YH2+LD77xCViu2SpkVgcTl9ksHkCpR9FuKnzDFmuB8ySUSl8YZPxrCm9CisKh3R4DMy9xUkxuTDm2LY7XtB51dn6q+8v/TuNYzpbIBjVv51y6V4lnX0WVBR9Xcyf37UF1E5YkRJm7a7Rg+5OxyIvBYAHSwTclCIkItCVFpWddzQZ28o7zp6eElBy/Ieaya0+jluREmJ/Prh/aZP6dV9dWlp8Y0xpneNMwZFZ0YAAEVnVNH0Y29sd/CbN5R3aRameeeGrUtp293/DIj2ZhJv1ZnFo9IhnQ4GDezwqw/s7B0yj2nVuYWKEzgGmUEI3qhQ8NjmWOYQ4T2GPVpZUsrcEemJ93pegbUlQ6GSAAhTQXTe8cd9xhN1vziHwEbpAqFcaZicmRFsvSq4HxZ3uxjL9jstGzi+FYKkJrdHN0fx/i6FGyduUqLbc7NoXfwZfpk6ghBSIizGb3VeSQgW/nPjxoYHMXHB1PJy+Y3D+z0eIGRiTGfFCkvOmzFj/kRYZ+zMv+7f7b3/DRr4xtElxR2ag4aWhFbPMF8cfMDvR7dre70KJmVGuN1ZEIywHjf26vbmn3t1LWwOOm5btnuGqqPK1uF+7GEOZhbO8QeEoTSsyu08y2Mk7u2J5GTjFH1PcoAXtseNk+wbI7XkzP8EVTU3D020T5EKsLTz6VjY/feoiPQCVeOgigJieELaRYisQ46VQJK5z1EvSJO54VsIYiCaBrm+DqoUwvJOv8G7vSbgp8KW6+jTVEisX+5cU48XtysWqb9JQI1N0JU+U/eyXXEysbi9bqL7KUefaas3/33Bzppm2XM5vnfHayWCU5wOW0hcjSbv/eKVQQf/v+agoSWhVR8gXfuLIWOJTqZF0+7czNnrTNOBEKU9jiop+h2Ae5qaljvWbd1xVa/eJxdDfUUHa5O54eQFB6tTqg3MmoYZ7zGhRDc2Rm92JYawn5JnLPp5x3KYZAjw3i4FFaqOS7qEUR6hnqf082gKBeGeUjLKehyVoTJ8UPZbFP3leHRYtgTFddtQVFBkeKBaKJIZYj0Z9BrVYGT1pZ0hhYtMDznJCLXSYsT3Tzo7x9p0BQlHkrO/gWSaeBcKTa83yjHShCLZPZrpsgI6ag8tRF2kI3YedgSquvdDVCoA1eN7WijfY0hLlavqNDy6OYblNVpKJHDiRE4rURFM+nZKgVpppxc9k8u7BXTGSlw1A37VsIJ5QiJAjab+56PKqv950dIQXFfeZVAIdGqcuR1Jl7yugiXoOX3X6CFzfrNs5R8/qqyuag6a9jZaLcO8oVeXYUEmzanRxaeWJwQsftEU03WMatf2j83BMBPo8v5HH+wePWQeJeS36TMzk+dKcAPSjVGCe3n4NBSlnoTMvX8LLrwGSW6Wiqvpy2ZCMjogR3oIwRfVGsZ/W4txZUGcXxYyzhdSWqmpjKYOyKou64mqbgdAlwPQjOA5xMy+kp9TpJQqlkCPqUb/29LsT0BOTuohWEwHM9neMmn+REGklBxvpNGF9dF+BFRTQJW4oZKVnM4EcJsMG598jyBIk+/zk1vieHpbLDmm3cJT2l64NFw8ZzNfCfD6P7d60aSARUBQ4Bp4w696VrTYJ+T7du990oigJe748/7d/qDqCPO0ieZOJM8RIwWSNPaFIw/6stPbn09vLrr2Jlolwxw1CuTPtNvUOs0k3/D+GULnGuN6n4pRQye2m79kRnPQdvu6jbP+0qv7eQyIMPO2AD8rTQ9GmoPksNpSkYf9tJAS7F8goYNMsF3RsbJON+wYGeZpUx0RQz88e1sci3apOLpdAMe3l9E+QI2kWuPiV7c4ZJwcE8xJU5xfKj/+i4khG/NIU+eTsHqf6XJ8GC3h2ZGUhJX43BHX8dZOxdjitCWmezBKIACCAyIEnYKSEbHquzrd+MzNrk/WeCZhOXjj+uHtptc1TCneqai8zz+9ueHGXt3KJIbTNEEDnPg/YUaUIUSINP76Xl3n/WPtZu8+2sfQKhnms2TY6QTsRNHD9oLOQChht91Q3mX29HVbfmpq2qav3frFjeU97gwQ3Cy0C+S6fCdWt3QG5n06ga6vQjxeB0IKXG2oDCiWCP62fwQDimVDUqSMYWWthjvWRvGjo9iYnXzWxhnWbolh3o9xHFsqY2SJjAOLJLSVqEFvPthl60RzSaE0tcjcrTJ8W6NhYaWKDysVGAGnqMi+y0mMOsOE8jB+0SFojD2aYrh/W1OPb+t0lz0fqe+EArHYdkDyZAYS01UGqI680E1T5NKBiYVCnOnbPqza/agXDQ3Fdb263k6BTjph9inCy4wEUnZjz65PRiLxY275ZnurMpa3OoY5uXd5+wD0exsUfjS1IAxRWnBMadtTp6/b8p9mIBH/2LDlHzf17HIOgD4iGtzoE14z2TEJIzs8CVj64Q6MveoNUPlM2Jw/sgV2ChLccUABOoSosZctjYS0OalnGJNX10HRCRdKL12M2eZDENUZ3tqhGNFWSmSC9jJFuyBBAXXdT2OfsOx6KZcOEr3ZTtcgWO67GL1d8zjV44cGUVtsilsP2nKBU/97zoou+Xi4lS16nqLnm2xvna6jIs6wXWGo0lh2mDm6L2bpCROG6/ePYHAbOSlRplAgEVxXHsZfV9VjY0JCJS5tpzSx4HwZH3/paaNbVBWNEqCWENIOIjug25B3SUcYicV16dI7V29tlj2X15V36RcCxjo5+rgiZc8MS/SooYVdjwO2v90cNO4ttDqGOaxtZJxMade4bpJdcpxXYrqOY0uKrziqqOihxTVN7312x+qNtcPaFN4xurTNo67bw/zSzZLzhQ5WqeoeDj8JrFrOIJProesnAKwoWxks3PfUjkG0D1LwNCYEyz6FEi4uC+M/m2NcXgi+pyXgpL12l5b404FYWmVllgxYNjSfzbYqYBaZPkqfSWm+l87PGWAgSsermEW2LLMBHOKHkyGPpFcwHH1cO2wGISKgl5nKNOchXPnMHtbQXDaBKcIC7Mzede3CLHZqy4KI8Ho6wYLDiUcSjh5mbjN3z9ynINzpMMxBXMuOl2NLAhjSVkaca1/iBW8foLihVwTXfF+HOHPSkxrtroDeYQrWLRB0khULKit1CvIdgO6eiSEg3QE6wVMdFyx6w3eZOWJyry5XaIA9BmQaPmhMzKEjioJ/AtCqGGar21YyurTNKAuzhM+FMn+d4NBjO7RttrhhCyuqX9EBd5dFZqHHDmIW4ggkkHV3bdhc64uAk/uugSR/lHXiYaY6kl86BamjyjRBWr8iCZS4SV9O10xMz3YkFskw1+RP04n0hNg/M+m5PiGmyTwdm9USY5WvB1YGQEzlEq4cWxquHWbazXUhFdheVLe5DL4uc/elmQl1qltEZ0pdCb5NXJ3g+9A8xniazflEz8jtOQmeB7i+Sy8ALM/TtKixiWFOjUBmEdQ1ROF0mFlinHcOUhRRvsPNSPQ7/RBndtzmUIwNCvCNBl1xWvwShyPhrImynwFC8Pe1m571W3+umHowiESkk732ETvC/PgIjp5UVtaqNvu2KoY5tLRI0sAG+c7gZr5jwNFti09uGsrsuHP95gpK8LFfCdJRHZtxBGBxFfrinIj4YuGzIGklg915J6a7E1etMu5wYifi+e8CScBr0nDsALf7uZTHT8LmT7/1ELuE6Cq2OV13mF3N6S1kOklEpjKY0yAS0dGYQekGJ/pE9HvpK32sIjnUau7nt8aTm/GdB6MkA18uesalCBvm76r+iIJ+79RVLBfHIGacgVtFZW1hLjTkgvq6LkcysG6O2liv99REK2NoL4do7yYmca+iVTHMY9sWdWSMdc1cINynEwTvcWLFOap9m9ObnEgTFND3JX6VzS+SnWi0XSff3rFmyzs5EbD8k2cB5uBLSfBdrW6464uQEFje2RlPvR8uHUxMDIMIRRcT3KRVt4fISRO2pILJXegRKWJ4IogYIgQTv2iCd6rXrVyRCC3K79Qep/tpCVikfubpcaHJLQgG4csyt9Vl7Isv5DBu7Nl+qNMQdCBRJsDnNRqqhC4q6UWKXoVvPn3Ru7IsFldWfqDo+nzP9aADzfZL5Ivbf9jWbEd33bB/11N1M1/gX78c1kiEEMoYGnjsYMtEq2KYBFJ3idCsXVZk0oD/940xHLFtxJDhTUtlFv9YvWGZ7bxMp4W+UxvS2rmKqmcDldXv5UTA0/dXguBxSJK9IgJ8UKngyyrNmEzM1SYmncWVKhbtVn2uONMTDt8I63I0d4geJHOwL4r62Yke8+9cGZQfGvny+e883KR0Ed0QSMsuD4o5tU80SwrqYi502pI7ScNO76GfcSFatNjzfV2r4aUf48akZ86RGN/r6jT8d1PUuT5ZBnTpIcy+z++mHgOfrNuy7ZO1W57x2OkiBr/GM/wH9GUNKMkXJnbrJgcYPZk/OEdES4Ygl2sJ6XnywWV5CbOlghB0szzXBi3rLAWGg0HcfdUB7ZopsDD5jvoVoPg03ACeVrn7yWmVVX7DdWUx+94ZTsLBbo1h8qp6vLMjbjDJNjIxYsV+sFPBzPXR5NmCroSLJC4RvCShXOCHafHX3exhonuNIc0sARN71xBYFi32Ol0kYMLVk0nr1P9OUiVzUbkK6hdK9F5M2AlMQLNoIePExEXSfRIKCB7cFMPsLTHjbhuJIERgbJO6fW19MkC7TfOQ2krCEMNTM2d6EG/DAgAfr9/8Ac3sfYalD2zVuQzVIKUoYMGVudLgF1MP7HwqwAZ6JnRb4zHrVy1KejQtlXsXrcpLdmRhkTWOai5mIwE0xhCiZEihGhkG4KPGU8iBkMqopieWtWHbO+8kNHBI+n6wlxev27K2QTTMnfUdzr3idMiBx6EqxbZJlgD3b4zhxR8VFMkEVSrDprjuoPqEx2THsvl8C5Qe0pElDc8gRPkZRxfPjETpuOu8l2guTQEvdRPu00SH0POU/24unyvTsS1OMx3fh06DkEvD/AxYp/pc2iOU8N3Uxz4WS5Rg3k9xLNilGJ6x9TrD+mjqzFEi4gQEkKQK7PjpXDw9a4MDoa64BcDgiup/Hd++7T9jXKxhi0Ou0xrFRNLUtWu3N4QGL4woKW4D0Nt9KXq8lBumWzIh3pHH9iG0KgnzyLLCAqcnKIzn6GN1pzCQm3p3u76JSLRWR6DrYLpoUev6OwWJGMd6rZy+9NvLvZ3cXXBavxexbNFvIQeVbB9kJw2NEGxQGL6p17FJYZlIPtl0zF3VlrlOuPb4YTgitaBTGgjS8pO5SN3opnYVXPecVNzUwV5MhFej+lks8HXxz0MoxnLPjgikO7O0KqLdSSrnrxFxc4XSLE9vripZ/rpAGiUEP6nAynod62J6kt8LeS0BAsE6LF14MS4e3qjtEdPXbbonxvS7ZaRiKfLwofJMPYpmCQRwQ88uvw1QepDQK97PMDSnNYPRosZT13LQqhgmM7vO8/dEaiR+jhcM2pQX26+qjx3W9Ed/aawoRKVIxoFRT3kb6Sabnnm+MXFWljwDcydkadS0ymrvvZde+MuF86DELwKV1WzFIojUrLlICE7led3nJ3FebWmGXyaTy0yQax1+8ouYnVe/u9Hi45kQUX1O+Qh3dipfgMtCwJMpEMGfJ8EuzJcfH/CpnbARlr0myQpi9Wfi5otf8VGIKxZWVqul730yCYS8LZp0ze92Zi7QWDa8XjYwSbNIbMe1K7nAth0PPoap12K/sa9JC0OrYpihqgS78XDTFjFHjzmbEBZQJO2xESXFTXr017C+HQ+hJQEidY1A7luMwGElCA5tj8DgdpD7t4HUoxCkNJAUJTUGXdOTRzYZjjdEfa+ianzxW4uaLnzf6f2ewpeLroYcrDcimpilHaF0AB8d6Vv36h++nh0vQTpJwW7ivEhHJmo3n9aNW4hmIC/xwm3W4dvi8QwcdW5Oz9NLbepAB+PL4mnMtd9dkvNphXW7PBvCMWwqJSTLWnzx0R9xRv833QnJDX//bv2EACHfSZkhyYzg+YkFPSmWIZVFICXmgsNLERjawfiUB7SBVF4IrTSAm3p1Pawp6Ulgx8jBl+mEHSK86TQsnF6DFLILAKeI//smWhX/v7G8y0V/7t39Uc2LacI9WItV+kyusgskiptXbzhr+totzzWWzur/XdApguAl0NjVJES7IECTp5aYJUuaPG2BKRpYjQrl+91Ql++CurYGMqVqjOCiju9/MqextAjx3LcjEA6+DCXufbamAX4l7/RbtOL3kgLc7vuRINxUoLnU4ZUGdilHOAZFfcPT5lcy4tN6qcVFbXFqH8/gGzJVONXnRqMArn3pVZZIjcy3nUsSCG2DUnMCTh34lX8i/aPy6KNLpaDyqRLT9qcdQwgcUoJAvxLQDmHQsJycB3SWldRJSrRRGVhMq4OER3RVemza3B8+v+Wx+Y1iSDeWd+0yuXe3HzRwp6r41YabIcgjS3i0+J1PLmkMjS0JrUrC1IFkHFUfD9rVuM3sCet1HX/u3W388NLCBvXZ1AsG9dPfHTdRe/+ydwuk0CopKP2dBqUuTGNgUQ16VAWLa2CKnvyLaUC9arwkNCIheHh7FJy/P4ov7wv5mI6vzuquep+Bd+5VHdH/yP1yJvbMvh/hw+dOQED+DoFg6iJzkQ54OKjRhNKQ15vJT7R+6nejxU2Va0pDnPJz5WTSEOfbwote7cilnW6LAhHDMN9zU4X6kS790MhJy0KjvYvkKZQmveoV6QZ5L1iOjsRYp/IKPP7PExvELPsfGcF5Vw9AeblrshllFZWLD4k8UHTp/ij6Qx+ERpaBdowY5On1qvHuJ+cBDUjMCcZcoBlzAZFoAZHlKyRZ/3jqxQctjb/1+3umXjBo5KHlJQ0Sfo4uKb6cEJJklm6KFx4iLbogT1yF57mh+xJalYR5fXmXgyb36vZdo3UADnO4BGB+ZdVVpyz7dpafYo45ZL/g6EO7Hv2Xi464TJJwBtMRME6q9jvNEGLYUHlyiExBdCTY7NxbH1s2429PLM2+3AOOoBgw/EiMu/oyAOcB+ls4uc+pfui1of+RRRg45BScf82VAI4ytCvGYY+5TKBOEmWOEpurdJRLPjcmncvr4Fe6tT29Bpbh9hsefeKnv7wkTQja4FdjwPdDQ6RNv+PGSR3ucF0KpIv9ELNn3IuvP3kdX3+a017LDG59bDyOHDkTivIBZt9zP5YveQMrPq1O35487rCS4w7vcsWoI7tdRjXWQ1NFC4TcRDtCCSilYIQtIms+/++oe7a+tOCrrRV+8l7fs8thU/bv9rHGUnFjReYqX0Q4zJcEeG/77t+ftvy7/+ZYYotFq2KY1/XuXjylZ9kmHWiTuSiar/wINg75A4RU1Ol6/07zP/WMJ6m+/buHpcLgJawuDl1ntinDzyIuSSqxOS0ZCzyJGn8splxKT3j4EePGK9/fh2DkSsSjgGacUBzF3FlleGpW7ns00xhzuYTzJ54B6NMRjvRCLArouinYN3wwB3DpnH6br8NjcvYDr0nUY9InEPj+56CmtOX3S59be+DMdDL1+enTXOloKtVsQ9S9uTJD833Y+4vKQCgMxOq+AyN/xozLXsD8+bmyCiteXbUYqjrMkGILioHaqiWYc99JeOb+iinjBh1yyyVHvEwDpKcWszu6mt/1JJV2UkTzQOYeAWgkCFanLI9r0THhXz35nRe5NccNfUth7Beuk5HontMJ0hxkSnDbms2jp6/dNN8z8T6CVsUwE6g6bugyDeywnLV2PtNTAsiErnlre/Xpp3+1Qqi2efvOX407bnD3yYSxfkzVhUPfT4V+UklER50cqru4+oRn52FgT1CMhKpmJxJJAr788GxMuXSevxa6YMCQtjjvytPQf+j/QQ4MhKYdCIII5ABJevPpDhO532WCm2QEF4bldt9tchYxd5FE5iQFpNIl2h1X9uDb5MIknPg/JbCq152kdbcFj1Of8/f9aA9EeeFBl5sI5JI+HehdURKDtA6S/B009St8tfBtzP3Xq/j6U8+jujwx9oruOG/8D9D0UIaOhPQK8kMPtuvzJYVPHNMZ1V11LUlrQzizdTSLmaexiCaonr9syz0Llm2+85Ynv7C1bURJcelrh/W7l1KM8wiv61S5L6GDEsRuW72p/M71W3wHq2/paHUMs/L4of9lOvut032SOmKqMWqHxLsXJOSH2mh8VMePlm1JJ5k65mD55suG30kDdIIe1yzSodcUbK3Gm1USwwCtYD3rhItiv8YC9ASY4rDyI4/htD4X59hib7z+Q0fEEitqHA5mEFCGtHOtG78ipjRpi7DuMS+a01FkT56mprT8i+z2gnNOwBm6zPp8J/5hSUdYcYC2OThMhhMjJIwbvBiOKJ1XOfx1e5mJMV+jahXL67WPM0PR3G/mPknDrZ/N6XXBd/NvPp/5OcJELuHqFD0PytVvzs+4six00k0gbB0YvoSGj3FGv6a3q51zxQU4f8LjhlaHfw5UQndWi/uC7+JUabnREC11L2124ZshaprfOwlIIRm6on7/18c+/+WtT3yx3nyvcvSQp4OUnm0EUXBYg1hic7itF12mKYmQH9q8t+Qg5xT7Hlodw3xp0EFjf1nabk5UtKfIL3yMXCkhaYJsf3fX7nsW7qp5vLpY2XH/Xb95BEHpHC2u5azlEKUQp0teWaZ3xgPKYDyj9UUtkwHi0l6J/oDHZw7AvAfirtXm0SC8uX5T/6iOZQkZbm/TIgKVJDBde/+U8m7H7W1aWi1e/u5h6OwS51VaMoLtKLoJl8uf4kRpNQqJapI2c1BzeSBTs2yE9PvmuImvnDh4E3Ye16PtSce1L70uzvQhHgcRNbxSy0/936Xvf/aHJq5pr6LVMczre3brMLl3l/UMKBCOCTfVgpvGx1wEySYLE4r6qKoFz+i2suDwjgN0VeeqySpPzGcBZ8lJvzDM3UZhvHLMWHJfG/8V7lKPBIzT/TwWBgatVIfOjsLpfT5xT5xHQ/Dsmo2HUEI+QyMYplnSaGpIkgRN1eaf0bvb6GapIA/g5e9XQtf7Jn84mSPSCOFYuh4vhuailEShwV+oaitP4n8RU80mxS0B9Kr42up7V8qFstS9nun+zjnwWvGnkzgIFgWShJtXrT91+rotL/tq3D6CVrWtJIF/rN+0QwWZIhEHkYsJvps/fQwmxrLHCyYk2cio/aSCgR0yzNJcJDFFUksH7TCH6WOmSsWGfhjRsGqZhHlaX4yOXoi71MMAJIRF3nlAQHzSfkVB2FjvluWxt9BczBJNJrfk4YiXVx8ApvewMEfixCwTiOEDrQuGRn+L25RjsJUVpZS07k+KOdrfk3MHs01gzBhXtCTUq+1FB3SvDxP/hwK5pUtVIyyLJXcTRDVt+cLK6vd91rbPoNUxzATav79kBmP6C/4bR1x/OkJlCP2yDIHjyiBy7YHjROhn1CZeDxWr9BLcrByPgdE/4uzoaZivd+E4u8jIxqxpkgGfx2DMVcU+W5ZHHnn4BYufDyoVWN6/zGvpZCTU8AMrwl+UY9C//jKMjY3Bh1oPSEaoWftan3BlpBfdwhjZfC5NB+tegMi5vZJn8/Fzktd8l6sekmD97Ws3/fKjyurqHHO2eLRKhpnAtLVb7g5LPk/lIjblu/U3BINGY0b4uuDgjsmYj5lkxJpZMNi8XDpoaq34/9SjMCR6CaYpw7CeFRgvmZUw75clWSEDguGukPSOLhny2AdBHL7nsUcxuuFyvI4qSHhaOwCjYufj7PhZ2MaKUxJnminaS89oo4hZ7uRnn6xRyJD8uhQgcla5+6ARTSt+m0aAEKVgTP9/09e1Hs9YM1otw1xQUf1xjaJOkfxE9+fVtCLNBzdoaMcQIqf0EKpGDBDYDZYOVSI1qBMry8QK8wOtB46NXoLL48djt3ECm+pCuGh0O4x4hjKHgvLYRyGyMOSxB3HWnwqhozt0r1U2r/3h31HdOLFznnIQhkcvxsPq4ahjkvfhJJYphjlYnFLfNIbA/sUIHFJqOgpOMIgaOJCk1AHXv17WegIV8Gi1DPPjqiq9/YJPpwHkDWNo2rSuLutxrwGjMQSHdgQJSM5pXbQexLImTCamUIyV5dmxMzEqNg6LDWFQ43KLloM8RC9p2kpP2nu0LI8mwJ6U9PJS5V6GTAtB0Cnj1OA5eRDre0nM15Oq2vWsAL+L/QYDor/HEq0clMQMrZN4ziLm3LZ7/MzBVIbgUZ3EWjQBibYohqJmpJcAhGyrJvjFwsrqZjmzsyWg1TLMNG79fuP1QUJ28uPYyRvVE4yBlAQg92mTk6MGE9RtjDmiYrVeisnK/2F4/cWYpx5kYpQiW6XXcpDZbZjZ621yaGkeDUByn++eQ16q3OsIIxCMZH96udrbJiJY86Y1VArWs2KcGD0bZ0fPwwdaz5SaVueym/1i7Zol0axB24cQPKoDMlIx75tkmjo8D7dJIUCIPr+i6rpu737SqmLH8mj1DPPOTVtWVoNNLpZN9sxcjNy8Tp8B4ePLQAoDpiSEkxqdvmdBSYItMjygDMeQ6KW4XRmG9Shw2E/JPNQ8cPHIM+UnxKdRN4+Gojm9XfNogWCgIDQ1j3q9mwJVLIELc9VRRQjmab0NrdOZsTEp+6YulDYJt+kEgnkobc8MjS4DKZL5tojhNF+m0gdpgpXj+ZOXrXzSIWWrgby3CdgTOHXZtw+9NOBgVhwgtylgHV037fIWdt522T4IuW8JzDYLs7SajJAhvpd8XfTEG4b5ak/cFD8eH+v7pZikaIuI02qVZ6B8Wgem2Zrm8qlTgZW7g1Bj2UVfOGXuVVMj28n0y8OcL/E9mkN+GaiN63IkKKU8m617ac2/xdt+s5GgvJV5zvt0ReWnr+mMwQiBdvafwp5tSs8IfvtO5vrb3Jc8EvcI1TH7/lYWQMOFIRrg31FBVktaEVQ8rx6Iz/TO+EtgIc6VVqCQxAyvByeKrGPKKmsSmUI6oBjql5XuJAtpzKYJgKhxnT33m2XfjHdI1arwszKBjO/e5YCpB3SdFqb0ZIWxSM7RLhhDcEQnhEeXJc+sE8Bp4kuswXaxAjypDcSDyhFYqZdw0qTI28jJoYc3QLgwyXSaYBB47O7z8fSs2b7b25LQ/8hCDBx6JC6+fhR0fTR0tQcYKwVD0MoeRL0vWniY1V+EC1juVJ64/ITsHmB6OHuFZ4sinZeIfdpdwZzL4OF0P71MI5pKSFzcJ251i9LztHHXicu2CkJiILQClGyEHngXT/59AZYv+QwrPmvYCSF7G+dc0R0XTFwHVaXO76EZbs/YnEa0AE7nldAWcVwqr8DvAp/jYLIdWgOUhdqGGtQ9sSap7soFSUaZYNXL/rdj15TTvvr+9Zwr30fxs5Aw07hn45ZV92zccs6Pxw06NwT54QKJRuo0E9NKG7rhEHWFAVL3QtfgOqLpWiIKXlcPxqXxk/CjXgAQVaB69evQ48YQ3NKTBNfe7Ux5C8aLK4YC9AEUlQwyTkpRYs5dYcDMCP1W4meyg5AxsVQYiSxMk6Dx1enZeqnZeXjd41UjxHSdSWAkIm6P34WaKC+409jdFnAGIoBWAqA3gmQkfvtnoLZqEXTtcpwx4EuXBrZMEBqFotSA0jbuY41/HvDZz6KxoRve8zPUQZihDsYt8ke4OfQeGJNcpia7fsI4gzNA7MotvnoTWSFCESAENZp6T9H7n05wa3FrRKu3YYqw33tL505bs/mA/+3YPT5IyfLEkAlRkl41GQtkkrIzJk8nIQgn7ksEtF3INOxEE14S1PjT8S1rj/GxX+OM2Kn4kYWSzNIAr+9gLo49Zpjr9KfIy0Bn+5b32jmX98JLP/wHNLAQcmAQanYnmSX4ZjOxNMRsCSHI3AA46asE13xVxR3ea2kPP8b4tooqEY0ZNw0En5ZP45HX9izE+49tieMxoK4akAPDEQgtwSs/PIBzruzqlLNFQlNqAPzonVDkGOE9j7hDNbaiTFWG4aT68/CG1hsxRoSBDyBQ5pOIhEBRAGEpyQSl1HxHMvOXES/b2FuZuB8A2RTVY3fevHrjEb/44ptrciS2VeBnpZIVYWrHjtKVA3ofFgA7UwcbTUAOYkARBQI6mEoZieuEbZBAlrIS+bPiP/abxggKnMpLDFdqDGSKW5RR+KsyImWfdFr7pSYYU/CDDLc2328sJAmYc09PPDVrQ+ML2wM498rBOO/qD0ClCFQlddFt8nbqLz8Sk1cfO6lrBWky6shcn5lbuXBR0bmpaE33CBzOyfSrRnRSJzvAUZvtlJ8BchDQtUrMmXks5j6w3IOoloMXv30TVDoButm73edzEd1n3Ok9hpnSa3xSgAVxkrwKDwVfRWeyC5ohAjjZ1JNn69S9snGa+lVlMQMbQhj6gbAwISSkMygAi4PQjQT6YjC8+o8N2/53x+qNtQ3potaCnz3DNGNqeTmNsVghI7QAhBUSRurBUC8RUjtt3Sbl5j8M7jJ1zPRaTQcAAF1SSURBVGEbmc6EkjmFhgpWiCfUgfi3OggrWQnHKAWTBCMY3lbC8e0CaBekUBnDimoNz/4UR40uyuMEF1uUEYFZX4sn7xqA5/7b8m1F/Yd0x/Q5C6DrvZKTUC4TekPue6XxwyREDM+v/dEpv+i6VzpRWnD0u9nIcllIiNrgd6Hn0F/U4A6rcNO4UVjx6eYcKt97eOGbayEH7swe7ZXrYtf0nHTg6FIZJ3UIoEim2BnXsahKxaIKFbVM9Iz5oijakjguklfgssDn6G/YN8UaBkIJ5j+xdOzxjy2de1T7IjqqpDSiq3oRI6yYgdQSIKoF9Zq7vt+q5NgjrRZ5hpkDbr5g0OFTLx60lBkLyaz6LcEo17FS3Bo/1nTclua5Ki+kwKSeYRzRRraYERLC5fpaDZNX16MmIXkSPxOak+o2JV3q6u04td/kJuuM5sLZl3fB+RPfgq71T17wmuT537kwKVFZXted7rsxTB95bQcQ8p/wIeWZ07lJkz7UrL4WCG7Pg+8LrzJM15LHin6O2ff+Es/cX+FRyN7Hy9/3hK5/DaDI/wIHtudbTAlu6BXBIcUSVNOjCBDgh1oNU1bVo05Pq++95oGkUnUU2YTbQu9hBN1obEZJiKsZr21KQBibQH/x0D1N2ButGj9LG2Yj0DY9wIlh72RGBI552hEYHr0Uj2j9UZvoUqI7vCDWa4PaSBhWItts7ol3olehhPM6Bx3IcJpAHWwhmqZAY0/l3tw9jLGTAjjv6mdBSX/7TbdVO28fAtcfMNn+RHY70XUfDCUdg5iY6hPyCObw3VQW42kXpePL9OgHGy0O4yPTfuI8jogT7aLyiEsbvKSk1MJBko7AeVc/g4umtvw56pSD1oNKq5M/xNKcGNaxOrytjMPayBZmCSPcHHBAoYQx+wW5fOZyTHNC5qQUDfNZGUbWX4A/xU/BLkRAUz4U6cfJNJQ0rNE/T7T8wdiiwAx/RwodNUzC01o/jI5ehHNiJ2KbHjSpX5np00EKZAz9CiTEHEybCcEyIXmGKQSSgyN91p/pain9Ac/9a2XOzd3TGDBwHIKho7I2S4hX0unz1Rx5nKCPiPkLP2kT7hl5MThkbU1A9qw3W3KniVMkjTnBS2LhaSUcLcxnPU51p8tqiKpRUE56cWA+I0+UXlWBQOB4HLj/WQ0gfM+DYLHTDeuYY4Lvyb7oXUARd9iulpgPhrSVEaROc4DpeXC3NaLhQWUghtVfitvix2IjKzZOQjLO1/WOtJ2HCXmGmRNYNYGC1awTToiNw7mxM7FA75x06rHMHz5sNwQIS/Ywauac4ZSHrrskwZUrusT0DzD7vpb/ahw24veIR7O/08tgc3N1hoMLJAwpklAiwxRAgnEMggNzknp4huImIYiYrVcePl8u0oeImfNlmKVAkQRJ7MWK6hIGDXUqR8Ssncrl8ugMbQMEg4skdAvR5IRtKyaVVoknx8S+gCdnvg/b6UjmsSUaK9bnG5Lcx0YB5U8oz2ERRDSsYoX4i3IsjopeimfVw8EIA9Vopf9C8vhZ7cNsLD7ve2Lkd7GjMDd+oHGgM0iMW0GK7D7OzG59vQ6ZwKKCyVggCLAqqqMuY8NkgrrE5VqQeIlXfvhaI5ve/Hhl+XBo7Ai7hISMRNKnQMIlXULoUyQZqeo1hi+rNTy0JYrtFrcEpz4y3xd9d4KX7c9v/qbI51IO81GXbY41Se1CCVIg4fummWUXKoyhSCL4Q4+wISmFKIGiM6yN6nh0cwzf1Gom1bapLF0bjpfW9MepvVd4VLy3MR86q0vwNfstP8+eYEtUN7Z2aAI+mJBsVtZqqNPBLW6c7MeieomxFWUbC+Hs+EkYpR+G4hXvFfogLo8U8hKmH4y5XMJL31762qGXvfhQvF/KTunEGL0kjSyW7FYyez75XIrG8PDmOHQnicD2m7fRpb7rrAqff9LyTz7XApNBSCj5wy6R9QhT3NWnwGCWLKX8TqzIh5XK+FO3sGAu98MsueuOfe0kffld4TtpBEQMyE2F6pTWpRrLTTc7rlNaNzJcpFJOPR6mBNMOLMCodgEEaHKnoEQJDiiQcG15OKlqFAV4IKQAiN7oQfDex9P3/wRJSqllc9EmZDVOiytVSPyW3BRiOsNjW+PcE3HQPtm0Ury5IfkGzVc745X+F9yGl755Auf+aT+fLf1ZIx+M2w39j2yL4884AxdOfACUXgldKwDjjY5eKzoIbJDJAV2jMSyr0tC3kKJdgBrSpkyBuMbwyKYYltaoLu8cL/Hw6juS8jZkz2HKxXMb1xHNjHOu6IhDht0FXQ8JpRvGcEanIA4qlIQK1f0CBO9WKKjX4cJURNdzlRq91JY8uLKJw/XMTTcFvTmvV71uGg++bFMaAsF4zlXaFFxnBCNKJJzcMYi4gAcXysRQdX1pjHdeyjWk1DIw7b9Y8VnUpdF7H/0GhdGt98nQdYfn5PTskr+rVIavajX0LZDQPpANJFCtMTy2OYYva3SPMeRWB49MPxPIoUMw8KizcObl7cD0Dfjm0125NPvnhLxK1gkLVhyF6vDzIKSzYUuxgXEMSmSvSMNhsiYE39brmPhdHcpDFKUBanjEbYhqqFAZt5LP0WkjkUWWq/DkjL/mlnEPonwksG5B4lt/BALFRuQXh8n+oALqGPohIakk+m+n6hKzUIiGOsJwjIRAsCUE9smS8c/RbUHlVK9Ibepm2xTR5MCYmYBmGw1wkbpFxScv9IlIQmaJlBn6qLYy5v4YQ4xXKye+BoMdAXoggE9MY6bl4elZj2Lg0F9Dkk+B5hS9nteeWBcsX1frGP9dHfpEKIplggqFGaYZnTGBndltUcSEmhr7YoalomeRcoSkm3HRtdfiwonX4eQDH2hsd7RG5BmmEx58cCPOvbK984FwIlUITGolwSC23M+mUUGwKjFTxEx+OY4ntzqBm0ClABCPX4enZv2QY0HNi6e/7omwfDyofAzmzHwE6xZ8AJDOzpN9EnVi3XQyFUFKuoTzgsWm6UxH5RFINJ5Iq9FM+TNME9YyMvsr+TpME5klL79gENTreI1l6wQTjDXzGDTZxm3FEmtaIkpjKs9sY7epVZOJ6vTUkXaM65JUETUsuX3CUr+1jM7Gx7CBx+K+hy6Brn6IqPouzhmwXpB47+Drz+Jo234cairXAKSjPYHTosWsFUoGvFtRzy3+bPOBE4P0s4hyGF6aBsikAAeU/OTe0J8v8gzTCU/dtwnnXP4IJPmy5GpRNLHyEgTc1VZOE5MrRLZS/mXgJmQjso/2Jl78+3/9NbaZMfaqARhz1SUIB0ZCVfuC0kLIhr/fy8Z9grBdQrcyja+qVQxtK5ZSahSGdTFBRCXGDCP9QRGKXgUUpUGa2qbDVbUn4KShEz3ORiPFkRpaHi+8ugi8UY1hZ5xhdZ2G1VE9eVAZr9olzFC3notg0ilWwHzf3B5POjwTB0IISweOb49A8GJo5GJEaC1eX/MtouoCzLv3ETw16+sGtrjpMLpTDW57fAYOHX57ct4QLX68VKluA9ONEfo1M/CLKfMcpX+Ns0561a2JP2fkGaYb5t4/DePGXwhCw1YJAC5q1xxsO67XeTgM8Mxv0wsphxCefdcd0TmP5aqjbFqcc0UnjL3iFgQjlxj2yXgqcLquwbAFM/PGVSLgHlmJ6e2dcRzfPoDeEZphmokUBRLBM9viqMsEVkqr8hgiEsEfu4Twy44BI8qJ1qDDnRugDs+pTOIike4bkFM0/2+Hgn9tjiX3EpqfBQiW12iY82Mc4/YLptSuSQQpwWeVKt6pUDy0KpmTVnRDhWiEoUMh4vEjEJSPwAWTrsA5Vz6Cp+6bajjg7EUUL18ys37gkVeohHa1aDQcmaaDipyHUNKHi0rWqSyHeShSBDxyx61Y8WnLthXvReQZphvmztoAsONxwTXPQ1H28ycSOEifGdWbKL0bRIxY9D35OwTgqq4Sjrt5wgknzZn1Qa5NbhIMOLIdbnvqIgTIlQDtbdiAmVP0IzMEKs1UnjoduPGHepzZScaIkgCCBNgWZ3ivQsGHlYrVWYQR/LpDAOd0DqIkQFPq2oYyoeZgXgI1aubnvsUsE1BTNB/fIWBEqnlqaxRv7VQBarXzztkSx66YjuPaB9BeJtitMXxepeH17XEf+0DTHSXoHzXx/NUQgqE/4oKJv8TYibMwZexj+PrTvRJW78ZTRo/sfkhJx5tWVmFz3Mvu6/W8zfZcF+2VBS6LPMstUxpJVlFTNRNff/6CB0E/a+QZphfm3r8I466eikjhg6ivdRngIiYJgUrWr6Tp9UKIizixYwCjSyniKLjilS1bZpzcpcsOt+Y1Od5/X8buLi8gEjwW9eY47371g06ra2LE0XxiSxxPbomDUgJNY8mNUcTax2PKgrioc9Ijkw8z1qTYi9Jgc8u9DUGir9sGCK7sEUFYjuPln2Kmx5lcML6xU8Eb2xXDgdtYQ1Hzdh43SclMpeA+Sx0XBtYb4cK7Me3J09Bmy/EYPdrJ+6bZcMjIYyapihL8bbcQ/raqnjugWWRicet8L1slfGi9uOzWLwlmmXgYL+PM/td5te3njjzD9IMbzn8Uf3+yA+TAFKhK6mR90YvspHLJ1ZgkmjjcJhIGiRHsH6E4t3PQCLdHJdI2Htdf7D/sqF+t+HhxdY4ENAx/e3Qk6ns+CEnra2WW8GHPdVowcAsPmoyOZCjkbIFVGE7uEMRFZSFhiDFmLNIlI11AjyGo1/tQiDcHa3KHHyW9HzNj84AgTsNQpJDxnTJ7AKkEh/p91yAUTTcYZNYpKLXIMB4BA4SRbbxMH14LVgJE6wBJOhb1PZfjb4/+ETdfvMfcap9bteEPmq6PTFAzqFg2NB0fVaqo1EWMziw9Cq5Z0gFWs4WTStep3xzKlwIJZrkAN42b2JD2/tyQZ5h+8M2nMZzSZxqmPb4Uh454BppSZB/gohfZi/ExhwHuJoHaJVeJMYzvEUrGmkxNQrqmQZblEbfOfvrmM/bv0fwrx1sf/T8cfsxLiMcLxI47TT2lcyyDAUPbyLiwa9DGLNOMsl39BvTcvRQd6tagQN0NylLCh2itI/DBsPnREGJM/CTlhEvc+CrHM8y7UBjxkRc8jSaCRP4iDiZScXlm4pzKIBlTsw4ZtYES7CzYH+vaHoFd4a4gTLP0jcKAS7qGDGeslTV86EgmkCr9alh44h3GlaYl/vriiGNexy2Pn4qpF74jTth0uPXpZ38TiIQfVOPJbWgJAfr33cM4sYOOv6yqQ6VmHiQiFW2ug4C/B8FSypyG+00l4KvFf8XkC27x3cifOfKRfnLB5AvfAItfaxjHSbrreEZHfKzy4PM+PFRSzPDTP7VTEKPaBzLMMg1NVUFl+Q9nT5hQ5KOihuOZFUU4/JiHoCoFdhpFv9OX3HySzH3o3U8FEsFV3cOp2Lt8URQH73gHIzc8iF5Vn6BQrQAx4v8SsFRUFEbSf9Tw9Mz8RsrrOPG80+kz91JM0zi7Jn2PmspyKDOdBungEtl7sOVNpjP8fTNl09QigKMd2XIzZcGpPIc603lBuWvIfKfQUaRUoLxyMUZueAAHVXxo0MQjMR4n9ogYkX3E74npOYu2TRB+LDiNEaSXRdx9BihKAY44+iFjjDYzDh1+9CQ1bj06MjHCuxdQTCgPZxZ2VprN8BPTV5TXQbNFiEAqTd0PRwCmPZNnlrkhzzBzxbXn/gcPT/8VCP0KgaDzi+rm2GFL6/e66Rpj6CRTTCyPYFxZ0NlWR0jxgGEjLnMhoHHof2RnhEMLoGs9vO1NMPWNyJbj1GfMoZ+zefsVSigJ2oPZJyb4w7c9j74738kwlXQeJqhJJNkYNZtslW5PJnPWIDeZW35ZymKeyrVsSjvFdtqzdftVJDNBSvcRm3wWhnobwMDtr+PQH1/lWpIMSNAlRNC/UDTNMI8KmXhfq5dkaUmXSqOrPRAOLjDGajPh7PETjtQZO1rUc4l+OLxYxr19CnBIoZRKIpKomdjGaIObtGmdI2xISJVycDtq66bgzxc037zQSpFnmLniuy91zL3vTTw54/+gxl5DKCKI3QgXqSoNPy8+E6+0dYZeYYrbD4xgVHsZxMUdX9c0HDrimKs/Yyzgq3254vY5E0DJoGQ4MD8wSxb8yy1SS4v6idMZMmBAoQSRd0enutUo3/0pdCJzko33IsaP/E9S/8AxSRETcq5NXJO9BL9q7RT9pnFBBHndS3Om3zraCTQqY//Kj9C+3h5DQAOMY+yskZBEtfPMkbjok0WM1OX9042oCYNw++wJjo1qJMZOumGirmmOJq5EP3SLSLjlwALDzk58MUYzRAdH+zXnpK6HjFDN2/Hk3b/Bmf2mYcWnu31WnkcKeYbZUDzzwHac2u83+HzBeZCDiyDLanKsimwIxLR6FK2WRRKpaeCzrBGtDQX+1D2MO/sUoEOQCk824MEY67l+7eZHBg4d7nQidcPwxsoiSGSsNXSgkyQokhJNwy/TdyKIDGvWcsvCFKKjBPvtfDvFLNOpc2FkziCW8phn2e7shwnLzo0ieypekuXL9rNkMy8IzPmsmsWEtCnj4IQUz00pifHZOew0zZjHP/+MXTQKTLTo4t877t1SFUCiY40x28R44fvVv6SEnOI3/WXdQ7h1/wh6hkhSZ2s7KcZB02LpDq+FtimxLANyYCM+/3AqZt81AHNnfeKX1jysyDPMxmLKRU/h171H4ImZR4LS2ZADO40BSin3EjjZNZnATmdisDpDkBAcWUQxqWcY/+/gQpzQIQhKiKsF0IyElBkMBceNGT/xyiZocRa/6leDLxZPQzDkIBnwEgBn47W9837tN7BN9yUSf5dgwPY30a5+k6UUP9Zl65MgwvRurD035KYOtdfjXKNY7hC3x5m6tCrYXUJN9Hf7ujXoW/G+TWLuJHvZ4ERPx/THGI4bNYpak4skT9gXqenvgSCMsZoYs02Ic8ZfM1gqLH5JU1Vfx2SxlENU/2IZM/oW4h99CnBi+wA6SGnmKdKk8CWISjUtEIihdgUIVREIzsenC0/Cg9PLMeXCv+HpB/Nh7xqB3N/vPNzx0rfFAJkAxq5EuKCTcS0bmcThJeCQWHHqQEAmOKGdbDj1dAtTI0KKw4HsviDJ8vqu3fY7cDAhSsNLEeC5b19AKHAa1LSkKVoocL8lCXjyntPuvW38m6tqQs/cu6H+FHHMVXjIRcmFxd8PiOCgoqwkGdCj+OXauyBpcZMqy029l2SOaZsiE14TlcFDLDHyed1KyspahLOJMkEvEFfJ1ov+NPtkQkbjXKZVnk6XzhCTivBO+QSoNKvM+L5Gw42r6pL7Ea2iqT9bJCO4plfB98OLMe6sydPLMG7Cy9ng5sS7nMQCVlVfxGl9T/eoLGe8sHHrHGj6WNaI/bgJAbxeA97eEcfzOxT8FE0thSn/HrkwUColt4gEA0CdcezL0yD0DpxyYEs/R3SfQn5bSVPj1L7VAG7FmMtnQCKHYNzVh0JjhyIYGghd7wyml4KxQjCWlIkI0QAShUQrOkms4MAgOnUJEwwqltA9IqGNlPRQ5GMxNwQm1eyly5csEh3B0jA8d+8FOHfCOwAZmqrJRZJOveC6jj9ce82FvQqK7l1fH+th2JksNho3ZmmGeIIviO9CUKuDllHHOq3MzSUwW0rmeMepdhGztF93m14zywZT4Twj5+kT02Km35kRMoEK0I1t2hl0to6IuhsRZTeqQx3tLWJw0LaIVLKc2pWQg2RZWjThhuuXzlxf76F54BZburYEz/zrAocMDYahigU5pWEhF7OIpgLT/7pTEMd3CGJrVMcX1SrW1unYrJLq72NkC5jWHoy1AWPU0AwmpEfCYgDdDYn+BFX5Fqq2Ak/ctQyUfoFPPt6GVZ80jrA8bMgzzObCvAdqACwyIgWZ8fwXbSC1iUBXOkAiATB5K1g8hqUHVP2m6poTL5w89bXq6hpDbUNSm8BzMLu5Qtc0RIoKx/UbMvSp5UsWvdY0pQKY80ANdDoF509827AV2aZbwSSpM3SOBM9Q4nGoqurfccEnwlo1l9OfJGatiVhsf0yQ0l1mdQa/LBCCsVRtsDOCNB8R0G07RSyV3y5NJq8mt3Ry9wVRjLyk4vT/QZ0PWuHUcidFuf05a5oKXSeBIglDk1l5EwBffupTDgBPzpiCubOaVBV79vhJHRCKPKNrui9VrBfSqlqJAN0iFD0LgggHZJQHtH/36dT1WryxtghxVgiitoOmhhEMbkWNGsf+ldUYPLhpNUZ5OCLPMPc0zjisCkDi70f+1uKhQ9/+9e6a2ZIsjYOmNRWftCBWV4exk66fFGjX5s3Zt9xiD9PSUCxd/B7GXvUmKDkx6THrxjSTv5OM0msI8hIDfKnh+A0mXs4+1tKJxZkH3Dc/0qEf6p1pN1ukHGpm9vqYExHmy7YA3izDF5lTwVyxxJds7gVRrzjVZrqqM5+q3JRKU9PeNMZmE2PAsGFXSpLUVjUc3presqWDIAby01/+Nj15LuWveiUYfo1o3shjzyHv9NOCsHLJEmVHxbZLCCGeZ/w19BVNSBJUIqPPuOSyPzSwCDG+/1zH3PtuSh7b1RDqmA82AkdmKdo24XRdfI1ZakHO7jHW9HZFMnGVoa1bUrLXnGgg/mRUO3XMWYqzlm2XLu05mKBV9t4lDrmzpbrdc4KPdifG4tx7bzLGZhPi9R92tjlkxNFXqIriSGNjWSihFEos9vtnZt27ppFF5dGEyDPMFoY/DB6sfLnwg3uoxAdKtaIx0qeuaQjI8vRzJkwc2Ihi7Hhq1heoqzkfkmzSyTEfk18aThOn0zVmkm382OfE15hForNez7C7hLSS9riizpQ5y1pWNa6bLdJ8zVoacU3vDr6fnPMzByulKAdv/xTltecW20DF10XLDa9yDA+3OtRVn2+MySZE/2HDC6Ny9FkAHdzSNVo7xPSXzuzd4+XGFpNH0yLPMFsgnpk5cxaAJn3RzUhImaqqFo2deN09A0eObFp90lmHzMayj64FlUyr+oZMH6I8dtmlOdRhtrp1hvq3N6N65jeoufcbKF/s5ByUhLkaBPfWeNfQHL3Blyt+Ms7yuD197jZq8QLBIT2VgGWLJuGsQ2c7FthAnDPhmuvkgPwLXWs6awYPSZZrZt9z9zXNVkEeDUaeYbZAfL1kkbK16JOZoUik+SphDITS0f0OP2JwUxc9ZucXbw2MkJrGMbTc8okUgaI0fDqrElGgriQEyg9VUBZuB2I6WK2G6IuboO+I+qaUmOrxSityhTHT79Y+OLJUksmfySWIDuUWMYq38dpL52RhS5QhvhSRq5RTk0RjiLtGTF8Yw+BCor009ui1jo1pIMZddX3okOEjUqrY5kGi33RVe2He3XflVbEtEHmG2UIx66S/P19fX7/QSzXbGGiahvOuubbJVrIDhh7V8dk1W66/4Lob3528f7hNrxDxniQt8FYX2tNC4OIjLkOkMGQCNaUlKg5jiC/6CQiaXhWZILZku+Gv5OXAA5NiUayudG6Zu9o2F3k2266sY5Cgf1y2RxBHOrLtM7Mxr9i7LmQKfrioXrmfvcIUk8rDEi0smvfCui1Pjhk/8VC/1Xuhz4ghl3ipYhsFQhLSZf1TM/85s9nqyKNRyDPMFooVHy+uDsXp6QCrbLZKmOExOebFNVuOaWxRY66a0HHavOffjxSEpquK0jNIgAu7hEwHknAMUnieVYNdmXyXJZJ70r8J941JBLH5W6FvrrcmpQTq8kpo262HA7s79WSlOrdWisuwfiOW33Z5VGj1dZEevR2A7Ne8VK/uvc8reJ2eXy7jIRnsIzHmwhRQYvFiKpFxF944ecG5EycNyqEgRxwy/OgJzaqKlSRomvrXZ+6ZsbTZKsmjUcgzzBaMk/t02VEVDD4oy823+8fY+iWT2WNvuKlrQ/L3Hzqs7bPfr/7dhTfctACE9I/VZ5nLYW0kjCkLgtokB35rAw8/iku4uOt45zR/4yPXpL9pG2oQX7SdOzE/lVVjqH9uPfSoKihRLBMR5rz5wt3n1Uq1NS6svf1C5xzXzfXuDkCiFE45cnsaaTg9b7uzk/VetpbEGBvTOWCMufRVTdWgxuNtz7v2hrfmrd543xlXjd8/J7JSGDB8uPTcuo33A6xPQ/L7gTECdfbRnOkz89JlC0aeYbZwvDb9jlmarsfcJYSGg+k6CKHdT//T5b/PNe8r323pcOvTz75aWNL+P4qi9NNU63khDASXdgnhsCKRWtmPSlbsT2rkbUR/8HKOOfxcRnaSCOIf/ZSshwoyEQJ9awzKikrPU0HAba0gEgUJSRbbGzPZGWGTNEV2Vzs7EVgqHejwvuYGxtXsZVl1L93u8eztVcuXynBYsYzfdg3b4tgmxrcaj7cPhUJXXnLTlA+eX7vxRFdyBOg/eOgxkUjh5c0pXYYKCjDn7jtnznvgzqaLwJVHkyPPMFs4np5x12YC/TwqSdHmqkNVFQSp/Lsx4yeW+0l/9vhJHW6b+9zNrEj+RpLko+trnYOo1OvA+V1DCFgmWTfLn7diL5vMTW3nJjWJU6RtnIkStR/roa6pySZM/AU4umUC5dMdYKpuKUNcZ+pfTEN0wVbUPr0a6ve7U9IrsznNMBeZ0Ym1MEFOP/1iozlBkkxBJGLyx3Fb4Pj17XVbEDk597i1JZk+AOCCsiDqXQItq0ocmqp2oVR+48X1W+acO/Haw12JTmHUqFFk7LU3XGfWnDQ1qCQhWl/36ooli15ttkryaBLkGeY+gNN6dnu+KijPlJpTNctY1/Ovu3Hh2KsndHdK03/osLbzVq+/a9y1160bOHzELWo83pGXKkXoHZFwfllQfKCtDWaGmotiL0evWtEJ/ykkao2+tgmW42A0hvDJ3RAYWGohS98eQ+2c1YCqe1MjEURf3oD4/B+hfVON+nnroSzbySVmtjLc5Su7fNcw5Wu2COXb3aifsxp1z62Htrkulc9bbesPTNA7PCP1Y79MpdUZzi8LoVeB5ElFQkLUdSOC1tjzJl239MWN215zU9P2HzpUvvqRJx8E2EmNCa7uCZ0teur+e85c8fHHzbYozqNpkGeY+whe/fsds/TmVs0y1vWsCRP+KLqfVr+Gw5FrNFUt1DRvRplGgpWc3DGIAYWyacb20w4vqcNbbUcctizwE2DGz1YiiC/+EfqmuuzboTFIBxYh2LcUwWEdkTksmyQdgPS1tVC/r7KoXW3UUAJtfQ3UVTXJgKEkqdZNMGa9MuYhv1nVtSK6/WxZcUpnUQPHdURf3AB1dQ3UFZWoe3QVWI3CpXd3E/IGzxidGKhHeYxhQJGEkzsGfB91h7SaVlESjOokNzXtgGHDR4YLCy9rTlVsuKAAc2b8c8a8O/Oq2H0BeYa5jyCtmiUSbTbdkKqqkOTQJedcfU2v9DVe/arEG/ZeJxj9Tb3D6BFyd2+x3vOSMr38Uk0bKTwEhIyjyKZaxBb8aOHLpDSAyCk9jLJohzCCozsno/6khaUANbaZMJsFzVR+nYr6lzfapWwGxBdvTzJRR9qY5VPUHPOWGbEdkZjSictPQFlVBaip3zR5RmP8iwqL41P2qTh5vTqhIemc0SNEcVPviIcHsDMS0mZaTfvSxq0WNe2oUaPIeZNuuCZW5xZIvnEwVLF1tS/nVbH7DvIMcx/CaT27PQ/g9easgxBSdvbEiXPHXXWV9OSK74afd+2kFYcdO9K3+tUJiemxQCIYZ2w1SXMiS83cBOwkfdgyOlyBSZ5ym1BNEVsDUpJ5MZNTkcoQPLIDaGHAaARhQHhkGeh+4SxTTfCVzfXQttQ6qieVFbvAdsbtHrcSgfLVLmjbo/Z7QoZkvSdScIrkSF9q04AEdfkuKx0J+pZVOKjTrZK+XxnX+snfY/7U8TqMsVQoi/bgiooW05ZW0wJk7AU33LT0+XWbjX3JVz/y+DmsuVWxhGxRZZybV8XuO8gzzH0Miz/95G4qSc2mI0owxUAgOOSMiTc83qak9DXCSKd4rGne58TUc2QbCafuF0xOl4y/66ViFaVzSs1M8pSYrVjKowTKip2GajUDnYGWhRA4tDR1SkYqtaYnVbMpu6VRMk1KikSm2WvpGhigfL4z6TQkcvpVGOqfXWdIoVaZWeyexCt9edWtKECDWJ1r/aH9WAt1Q61dfV2lGvtRvfghc+1nM7W8M4+XF6z9TmIMJcaS7wPVPRhfYtzHolFIkvyP51ZvfELX2P3NySwT0uXyhR/MOrt79+bzJsqjyZFnmPsYpp9x6iJC6ZL07+awaKqKAjkYOE+Nx0u0JrTfGKozQvCnbmEMLMxuNRFtvnduGS8xOvm88uCUiIRTMVbFUf/CxqQUmb4XoIiMKQeNcCewMCDQvwS0LGIwVWNeJQTq99VQ11YZzNdMjb6lFvpPMRNnIwbTzRBEiXFf+boCoNTWMnf52EyWXSUrOtUkeyVrG038i76z1Qj/Z+N7icXAR9uhV4rV8cRT1UoEjUgxTQIrAyXeDj8DCiT8sVuoUVuLhGAMmqpIOzasP//5f9zRjjaTv0CyKlb/9WdL/tVsFeTRLMgzzH0QXy5ccFcgGDS+N8caOLH63bVpY5OXm16x1+nMUKcRk6VRkNrH79xbzzhaDEgUsY+3Z2x3xj3GEBhUCtouYjqD0QRKEDmjJ0iBZG4g6l/aCFatWMqOL+FslIqO0LGdkmWmi5UI4p/sgF6v2CU8hzYYEE7q5sUAs+XhZdNEGnVrLbQfqrPlCSpVvqwQ8jIvda+xfGAOzEdg0xVdSOdOTFiJsRNt0gO77HUueP5ZfPbG62iO0JSSLEOJx/7z9F13NV8UrzyaBXmGuQ/i4X/d/3w8Vn89pU2vmqWUYvVnn+DdObONM/maCwcVSpaoLEk4MU4m2GTBSyINlAYooHyxA8pnO6xh7ooDCI0sAzTRzJxUrUrtwwiN3C+bJiE5VimIvrcl5Qmb9LhVv7WqeQMjOiA0qgsCh7ezbF1hlQrqHlkFVuf/sZoZf7aH3CRNAQzP4J+S7SfZawia8lCC+Kc7wKK5DzlmU8FCID+7aRSyqQ9tI6FPkfcWkkaBEMiBIOb9czpWfviB8U40FRIMWFPVL245f+xfm6zQPPYY8gxzH8S6BQtwZu+edxIpq5ptKiixGOb9Yzoqf9zaYO9DP2DGHOzk5MJ8TKR8noZB3xVD9JVNVglIZwgObg8apLbIO0nlZXoPIBA4pB1oqWmPKSFQv9kNbVsd9Ko4Yu9sS0ptqQJIaQDh47sk6xjeKelFlG4uIdB3xKB8VZHSYtrVk36WCUSwtYU5OOYkSEtIxOrqGkv75T7FCAxqby0kqieDLQjqcodomwhxUNXySa2sMTFmmpVZmhCPxfDvGyZhx4YNTVYmY6yehKXTVyz5eFeTFZrHHkOeYe7D+HLhgrvklGq2KZBgkN98tBBb1q9DfbVz9J7mhR8HED5NA5kmQTJWrBk6A2kXROCwdqnY9FaVJuNjzgYowmf2tJ5mojJEX9qI+MJtWUbKkvs5g4M7ZBYitG0QoV93tQaiT0h7n+0AU3Sh2tlNEW2hyzENVx4Dou9sSdou0whRhEZ1RvDQdsaJLJmSacpjVrKrfP2BVwy7xRT2ijfc/Ejb3F+aNRPU5sGcO9Kq2NPLytY1CYF57HHkGeY+jPdWrnhBjcbeaqoIQIFQGB+/9CICwSB2V+xskjIbB7/ek8xR6nKTU1mdCuVL0zYKkgx3FxlTDlIY4PKLz9JMkCh3L4Lct23KYSjJ9PTtMcQ/N5XNmGHvNHvcJtIHj+wIqWehRUPJdimGJMccTjcx0+LWQ+JTTazQd9RD/bLSoo6WexdB6lAAqWMYoaM6WtTG2qY6U0g/p551Av9kiPhWBn68bpsexEQPpRKWL/wQb/3n32jUe0ZIYl2kPTvr3nubis489jzyDHMfxvxbbmFz77vrIjA0+rBcSim+/3gRVn31hfE7VlsLLRZrCjIbALdJUix22JxaUoyLSSQZE1Wmxm8ik+RngCL+8XZD6stk1pjB0OTOkcxeUWaa2EXnQBpQdISGdDAkRWYSAYlktQGGT+4GEuEm3bieVM3qnJS5eHtS2pUpmJSkHYlPOdEmGH8wtSt9Lyn9iei12zUTP5RvdltnAZ1BHlAKpmhgCYn4qE4gpVYtRvS1TWC1aqovYdBI0jTKzpGE7GDCr07+wXuKdTILPQRUkvHGow/j6wXzG2ymkKikKFB//8w9M1Y3Ial57GE0X3DSPPYInpk5c9uAocdcc8iI4S80JoRX5Y/b8NBN1xv70RKTQrSuDtH6ekSKi5uUXh6GSplocYAE7RKFkweot1ettqkGNf/9DroUsBeVNkH+ZAoWYOy5jCB0XBmYamc0XtpBqXME8qHtoH5RYfdcNTxu2yHQtzS7ncTUGrlXMcKndEP01c1Z2n6MouZf34JEJLvPExF8pu6RQhmhYQmptcjWO4RjRXpch/J5SsWaZvLtgpAPbJOlLyAhdHQnRF/elHFkYjUqah/5IUkb16dUU6BdUQv0NN/y8ngWwSx9EuhU+ikQDHVSlLjHUWVNDWa8D0SSMGfa33D9E0+huH37nEoglEKBdv9ZPbo90mxk5rFHkJcwWwFuHnvmi4TgBykQaFD+hHT5xTtvo6a6OmW3AeLRKOqrq5ucVjNCkQjUWPyjirh2K0KhHGQInvvZnWNYXIO+LWowHuPP/D31Z5m3gxQFZ5eDhMRrSJFkYd7PyHQgNKwDoAkTGLZLQ5oVlZK4f0RHSOVF2UwJxrRbydItaov5M/VdW12NutlrLPFfSUrKYxl1bhLaxtqkpMiyW0kCfdtavaMT1/qVgBTL1n2kCdq4uo2/rVFbIHprZ8BLUW6/FAwlBsv1iqreEggG402+/5KDsHRCUF9bg3cff9QwXfgvzFhk6M/88657mpDEPPYS8gyzleCrjxbOYLq+piF5dVXFJ2+8jsxB1anN+9Gq3U1MZRJyIJD42750/vuXPPz/2TsPMDmKM++/1d0zO9IqIZKQBEjgwwHjA8NxcMYmnAl3+I5oMvg+47M57rt7Pu4++3xgG4QxJnxIIggTDoNBCAVMsI2xjYW1MkGBIAkkMhJJWuW8uxO663umJ3VXv1Xds7vandn9/3iWmamu8Fbvqv/zVr1VdcO1X3lo8uSPauEs0hDawnkqQp8/ydJNUQ7GOXw0iZGGE1USHMBs7Z6h9Il7hwN9it7n/q3+HrQqwTWoRYFPf6m8sTs/Ipks1kmUBDi/rDZ/6ndb1Crxq3GsUjSuVbxWCxdyDh4V6qufO21R5u/H1Z4W6gqfaKc090j9BahpwS8/MpTn9kmT6Iz997nmoZuuP95xnGUp/wvWroE3v+hpWrTwqV/T0md+l3ipiWVZOfLknNm3TUagzwAAgjlAeLXt+fuznYW7611obTsOvfjYo7T6/fLUSuAhvHPb1l6fNyp6lUTyjRk333D8D887+4Hf3HOPp29EfZiqaTXYeTKdBgdfi15fWlD6qL0iHiAziltKFxoPSRJlvlzeZ7Yc5Co7XX8vWpKGOdCy/c6E4ZQ6fHQpQtZkc+XHY65Tef/X17eQCEZ2ysDQsiDyduSo8F5gowJ/KckIsvceEupjJbAp9bndyN5nCJVDh/VfRqRqDHdHg8IYHR2o5Y0G/cyaOuWFGZNv/HIhl/u5k07vmqVPhkiqfD5P937/e7RuVTL9E5aYO3PKzVN610DQX2AOc4Dw2M+mdr31yoL7fzLn8e8RUeJJlk2ffEy/ve/e2o4mgYfF5vXrey2yvyjMQogPX/nTs1NXvLTg7pm3TtEcAxG3ME+ynyPOV8Yh54Ch5Nopvoryq79BwdF7+ZurV+bGDD5rqa2q+MiIVbLgUeZr+/q7+8isS6mDRpBz0AhDn6q1+gKYOWmcPw/pfrQzOldpuC3eppy/52u1qg1dlHtpPaW+uAdFNlyVRF1z1/jrKn0vVJaXkpwwJtjJStbSa96jllPHU3ZeO1HO1Xq/lpsnigxrx4ladM64Vi7a8ZmTJ2+bOXnypZNm//LRLx5z7PekW/hyoVDovS15DCPFRYG2HId+feftdOnNt5DHbmxRwrJtuXx+2+Q3F7ywuNdsA/0KBHMAsXyhH/b5sGXb/54kAKj4j/+lp39LO3dsJ9t2Qg/oonfSsWWLL6Q9PQ8w3ZKhQj73WPv61ef98Pyv5w0WlV9Vz0J9iAbS/SHI6LFa9rjhNPRbnyFP2EoLwYXvsrQXbM7zRbB0TRof2UJJjOSVpQCgoWdPLCUUPD/aNGpDWWyFKAtwuVJLUOb4saWI14AFwT1hZaiO0vX8is3UOX2lvy60QvbZdnI+O4pEix2y0d3URQV/PWUtrzNhGNl7DS2v/+R6Tv4yk9YLD4zehAAWuWTv1RpJj4TnVu+ezsOM5+pzznqaiJ5+fNVH301nhtyU6+rFQz8MTq9lWfTac/Np7v0/p69+85/JLfB/0kJYS6+84Nw/9p5RoL/BkOwAY/pNt9whbHtTkqGqohAu/sPvSmJJ6vCeoG2bNvZoyKvoVTotLRuW/HnepKvOOevi7xxxhEEsg6hzWKSZ0BMB4VIe3kWvqqvgb+UW/PH8tMqP64tluE51eFdEWpWS94lkIEHmXN/DVMVSyRnxVqnspdZsLlTtLv0E+1G77oxvJWtMJnB0mvADevJvKtuV+qeybAn3q+CRc8gof3lMzUJ+TtjvU6Bd9Yc6C7V1pqGCxA6xmkkmqGdM2PfmJfPnnZ9uaXm1t9Yksx59IK3oZT513z301oIX2C0kUy0ttPTPbbf0jjGgUYBgDjAevWPKOzNu/OmxwrKMOw8UhXDJ3Gdo3UfMJuuidH3T6tXd2k/WF8p0+qNlz//5/z700xv2/8G5Z1+zfOGLdZzEK5Wx0wTr+Oq6plsbGF2/aN7JRv8gr38lafe+mFT70eLQkHMnEGUCHrVjlXYyKnvPxf+8nfnaUhIqfbGwDxpOqb8Y2WvD75yVNdQAHzWNlC9JpsHxGj849+yZXxu75xeXzn/+1PSQTJvtOG6Pomljivp3U1j08I8n0cYPPgj9O7FsW+Y6s9fPvG3yjO4bABoRCOYAZNZtU173XG+GKZIvlcnQi08+QbbDTP2Un0+dO7bX9RgviuzQ4cOLz+fHx47d88Afnvf1W+bcfktCoYxbfxmZpayzztryCmKEMK42YcjJ7ajD+cWCWZ6i27MnuT3l4Wgpyd5jCDmfGh7KJDflyG3vLPXXIn+7vqLnWcWxKHPiWH+TBcHYVdtLV38Hol9pdOG9ut+xGuAjAi/1id6PLjzrt18bs8dxbj53VcuQIdXdeXZBaJDvxW/bvJF+dsW/Ub6z9mcuLLHsrAPHX7ViwYJdeqYK6HsgmAOUGVNuvs1y7PXckGpRSF//01z6YMVy45d3P+gn4SLx4oPJsu2X7r9u0rlXnn36RUcIkXD4NSncWoY4LzQalarzGE3XwjVFvU/OI1WtrfpKyuki0aOeOcujfVODZqkcmJP6wqhatG/51vjHctmC3I1dlHtlc6g6e/+hZO01hBlmlso94e5A1AY+ByeUCf6uJFc+Gbf+r4tvfPD6646QFs20bad+71k3E6BksiybNqxZQ88+9KDvZabSaVrSNv+mug0GTQEEc4Dy6G1T3y3kc5cV/0Gr5Do7aPbNN1KhUDDWke/spOz27bEH9Q4ZNoy8gvfC9Kk3Hztr6uTZKxYtqGP4tYJkHk46kVTzSIqeYVETUd4jUr1CEXqns4RLjXiRSi1CsS4c8mKqufJe/7hXvUJ7wgiy9gnPZRbe2OZvwefvAVuQtdNTPEmpQ0YTmf8MyrZGvWhR9UTr9/b1n7kh2PoHi9va2mjWrZNfPn3cmPMLrjtl6IgR9R3TFfnTY/pYvuakUjRv9kwqdHZSLtv54utvz5tVt8GgKYBgDmDOnLDvY5LcXwfTih7n6/Pb/G/FkQeI8kzIdXXRji2btY/DVLqFnFT6jVTK+vYPzjvz1Dm3JB1+ZYg8JzlPUs0kq7ITfaTW8vKPX9UrlKF3XG1cKjf4GKwlGBHL1WXyeM1t83UJiyhzyjiiVGDQtqPgn9GZXx7YNF2WlpI4BwxLKEi6O6zzkaM5eb9Yzdf7g6dXn/v17z5w3aTjhaDfFz3A7p3zau5jtquLnrrrzk/m3H7HeXMm3dnr59SCxgCCOcB55JZbJjuBLfMqc5cp7lgw5ZnQ1dlBG9euZR8w6UyGsvnsYw/deP2xXx014t7lCxf07PR4rXcZ/MwNdPLLG9Q6RGi+kJM6rjUR8KD4/NFHf3RGsjYzZ/LSkmHKJ8oNOxOHkz1uaC2zJSi3cCN5aztD+Z39WskaVv/xcPUd6RWxkBlCl8p8pRrs0zMRfX3RC+7MKbfMe+W+u08p5HLfSaXT29i5e525CfIVv3w+ef99/zNzys29d3gmaDggmAOcZS8+92fP8xaSEOW5y2dp5YrlyQpLSVs+DkfRWo4j0y2ZBa/Mn3fm2RPGnzXn9qnre89aU0Rk3AOUH6oNl5aGmTiutVqppMOi0dk83Ryl1Nhlqjuht5n3KHXYaKJ8YL7UVkSqvJRE3Qxe125d6pEYqbzVeZ3dFegwkyZNojMmjr/nwZuu/4pbkI+kWlp2aJdN1dNsKd9Wy7bu7RVDQcMCwRzgvLFokfvIlJu/kU6n393S3k73//DK+I0IRO3NquUlcS16pE4q/ebStj+d9LWxexz9o3PPfrz3rVU9RlUk+QHQ2nv1GtdCfd4KV7tah8lbFaF41ug8a5w19UhF1Xv2N1Ef5S8XiezyU567tA8YRqlPj0pQZ7IgnWQndKrXTfOYQpOn58yeMnnpmRPHXjDjxp8cZlnWH/xhWlF7FOY6OvQm8hQ6u7KXb9y06ZNeNxY0FBDMQcCsKZPfcru8Yxb95lfv5bq6qifJh9A8GFavfM8Xy3w+//j0G6//ytUXnb+Ldi4RjAfJDN0xITbhMqT5HKwh7inIXBcm4YuKhNDmpZCERq9Fh22TWhn6amFbNOTkwI5BQS1yBGVOGVvd6YdbOiID9qu/BT5/shjjekKqdoVYBnnk1qnvTrnvrlPcQuEyJ9OyrbI9pB/JnOx7QvHfUt4S9O3Va9dgzeUgAII5SDjtgL3X/vzG6//RcpxfEVE2cvoGE2UiLMvbsXnzwucem3PWmRPGnTm7V4dfVeJESOrnK+taoM492tVoV0bIZNxDvx4L+PfRfPHDxrr04kPfqqzLVDLa+7X62+CRssuQeclN1K7uzWVyQVsqu1Yog8ybNEmevv/Yux+84bpjPZKPOC0tO3zh5P9EQp+FECt2dnRe8M6qVTjncpAAwRxEdOVyK95btfI06YqLiWiNZVnV8y9LiGoAQ/GbsxT0/UULFxz108sve2zXW5d02QEzvKd9bid78AolbpbzpvRxrhRYShJMjPqHwfmy2OAdxpOr1y+WBY9Sfzm6NCxbMbkgKXXIbqGh2u7PVyaDtz5JQE/vzF0mYc7UKUvO3G/sBSIr/9HzvPV25TACEYgqLscBUOkL1E3vrlp58Jp17Y/2mZGg38Hm64OQ9z9eOWf3ESN+J4V11MiRI46zLXtfItlK5HVJKVZv3LJpmSR6efOWLSv6x0Kpmc8y5eE80mQP3GSznzWE4u9KphS74YNMEnKkD0yKs6smQbWlLPaEYSR2S5G3MVf6PK7kdUo13sbQkikOORnqMDpXs26eU722a/mHiXv96cRzzv3Czlz2qIMO/sIX1n60aqKbLwwXJFzpuu0dbuH5zh0dCzdt2/JBnxkFGgYI5iBl47Zt24nomU1btzzT37aUUAM9pDJHKZX0OETkkznOVTccqRsyrH9AMkl+bri2Mo+YPGgz4D06FrV+6yByV3eQSNtkj2+tCnfSOnvq59W+UHDCmWT+su88zSLPzJ7VTkRPrF33xyf6tGHQ8EAwQYPABfdwEbKBIBY/mySSXHhMVFg5gYhGvCoSXT1+i7NYlMUscFwXs1FBrZ3ggVzJJVD1aDkbOHsqtlstNomJI0qlpTTYmFya6vM6k4wYmBrpOw8TABOYwwQNgin4Qyo/5ItkSQBM3l50SDM6kyYDMlZJC6y6rARAsctDuOCXeE+VG8LlUAM1uRLcPrZSmdsNtueLqMaCevy4UAhUoqCrbniJfetYAhALBBM0INzSEUHRZSZmP4cf3qyUVD1LveipHplp/1TOA1SFjysdXkgjWFvjlpwIxQsP2VwWNb23bP5sKiMDQ7z6nOoQrE6ueyLjAOxaMCQLGoyQ75IwD791AJ8mtPufxnlwpjQdceVVya/4fkKZw1QtNJ9xwrQZc+pMd2QqeRm1h1zELDc/bfKtAeh74GGCBiHsYyXLr4u+JCqIFm0L8TWbl3Goy0h0wsxd1y2uoNC+tfzXBi4t2Ippfjburqreab07IgXxhO57ePSLTrBN3s/F/CVoHCCYoMGQisehzF2y+aPsTI0iV9gJcpaIhv5UZ/0i1yU7J6laJVmh0/dCRjxf02ZznM/J1cmV0bUfbC04r2sSfPVaQaSpwxmpsTjJwK/u9w0vE/Q/EEzQIAS9Dd3cpPogVaMva3SkdqMPRxxBQrpKDer8ZFxNkvXe6ulRtDUOLs43eWCQqYU4H03vwUaDg9Sg1ZAMSo/e3+1o6nKGh+qXMu6rg9qyYKyCpwn6HwgmaGDUh6fulSgb0RZJy/c8ifL2UGMLUvHk1KFIUZ0j5YNs6gmOUWsOvgrGsyRm+De+nehhZJzk8IFEXBmm9ci9LuXIOcPozd3/NvL1Yqu6AXykMnPwFsQSNAoQTNAYSEoY5ME/PNfmZGR4MGu10spRf01CeoF088M3Oowp2XSKsVS3kblaUt2WT82nDv/W6o+GO8nq0C4/oKn2TATy6/qi33k33M/iPX5v1NGUF+lI3o057gix4BcGzr+XynUA+h8IJmgMhDmIhx84LMuAIFrZ4VUP5qhgkUtvjT6Osk5roHT8XF/tyOj6xJW7xnlwwthPNS+XWmmDlJnWaH5dDzhR5Xx53q6wL1r8ryM1it4Z/WX/ngdJCaL3Oj3m9ysDFXJiCa8SNB4QTNAAyAQPS2l8kC7dUaACM/TnCocW7XMhbUvvGZrPNMVfysDR0UF08sN5XGG7o/VT1Xfi51Rrg8F8XbqQmJ6Eyqi/BX2eQC7Ppa0tY2jR2AvIYx4nXa6k5Tu481fLvZNqGgfEEzQGEEzQAJg8LnUGjveLPsl6NHdjIeJlCpK0cch+NHfCFfT+bseQLV2yvax/XFfwrEehBLpUpEGEhj/LaYKfXa2UV+tSexf15KLDybI6o1qpTxrKqW1WbPeUPnD9NdkiQ3OYolyvRdK/h7aU9M4eJ9Cz+/87bWkZG5m7LHqXT6zP09rKkCyre5yvy+UBoP/BxgWgQVDnsoLIkGyFP9fK/3x1lj4zzKKxGVupuejJ5GnZnn9H7436a9qz433aretjyhS2k+NleTN6qzsNSPcHPCUV7Ax12iNoS2Y8rR96AO1IjSZL5tkB9Hd3ujSnPVtrNRRiGzdHiWFZ0HhAMEGDwC0z4B6YmgeuENQhia57v5P+64AhdMAQm1yplpL+cpNVI4+glaOOZPy/5qRvtbnspUrP/yJiUTSgxxZE73W4dMPKTvLlUt1rNmJw1L+utAVAIwHBBA0C99DkhFP1PMJzn+15oive6qT/9xdD6DPDbOICNP2hScnNq4GekrGIlmxz6cp3O0q/JxH8giNqb4lJjxAXggRA3wLBBA2CVIZlVU+jFiRiiZIXk/fFUJSO+FKquv79Tvr7PVJ0wugU7dlSit2M2U4VdJOiJtpEtDbr0e835ukPG/KB34viTpZ/CcXfn1v5TuRHUgS/HKm/e/ziQGMAwQQNQPCByM2Gla97RIeNdOibY1soYwt6e0eBfrE6R+vypSHZUtbS+00u0fQ1OXpiXZ4uGJOmo0elaFRakFXMJwMbvwWCNeN8Hi49JPOijuWDges9ma3j/G3TUhL2WvnczPKtMecJ1iWIPEm0OSvphS15erg9Rx2eOr0cuCGSaP+MTZeMSdH4oTaty3r0yNocrdjhKsO2Et4laEggmKARKA+ccmpTes0ISd/at4VO2D1FtlV6iI4ZnaK/GunQ3R910dwtbtl7CTzSLaIdHtE9n2TpwfYctdrFP3hd0IlOCknJTwklyqScBkkTQiO0qrfG2FD5wsBGFMfZaGpTad9/KaUXpKSdXmn5SEko1ftZehVS0gm7peib49I0ImX5QrtPi0WHDHfo8fYs/aI9r4wURGzbpjESgD4DggkagU/CD1jlYSmJTtsrRSftmaaCpGowj1v8A7YE/fP4DC3ctpN2eOo8aM3b6ZJEXQVSomwp0JanEU1ihos9pR3zqsUwpqAWodihCp5aTjLzvaQRQrXewPtQF3QRq0y5YDsW18da+18c4dB/TMj4WxjmlW6cOaaFNhYk/WZDPlBEsVXKdsYwAPoUrMME/Y+QK0l6ilciQs/7zw6zfbHkGGILmpCJ+1PWPfTVNFN+3SsZxFEw71V0bYs6y+na0nm4lTFhVYi5drk6BTPvzLQhJX2+1aa8phfF0sfvni4Nl3N9yuc8sqyPNMUB6DMgmKD/Wbp4NeWyr5MV/HOsrNsrCVH0dMtQTkoLYoRBMg9zTnxM82SqR6Vrgxhv0zTkqV7jAp64unRDrpxNahtqndwXAE5oNV4l663zQTopoQ+6KiYPFRTZdMKn+DchvQX02sK1ms4C0GdAMEH/s2JxlgTdFRZMEYjKIVqd00fQFHOsyXPRKnHCohMyXSiNTnhVT4trnxOruLlQoTEzyZyo0Mx5qqKuu0c6e1Sh5O6DkiaE//tjBbH8EFrZ5VHOk9Fh51Iw0DR6fZHOQQWgz4BggsZgxm0PkZQfhsRFyuocW9vmPNnKFnJUXp7w1k63tP1a1SNV4eYZ9d5QVER0wqcJitEOzXLeGyMSKpI0Qsxm1NhEjNjHebHcnKluHpMM/ZG0aGveP7XEZqzeUpD0wOpswLaQ2L9Dj9zxuKbDAPQpEEzQGMy+axt5hcfJspWHZunhvGyHS7es7PKfoU55HeYQm6ijIOnuj7LkRR+0ZbgHPxnmIRXRM43WsnOPpjlHToBIKWMYxhXBenRCzwmraQ5U5zFz5dT8uuHb6DDzhjzR99/ppM15j4bawhfOFkv4Gx3c+0mW1uW96I5AtkPkuo/SrGmdmg4A0KcYHwcA9Cnn/e9P08VXvECFwuhaEFDgQSwlTcxYdNQoh4bYFn3U4dLi7QXfQwkvZ1A9JNIMmdYzxxiHbh6Ts8ck6qqdap+4NkmpK4l9pjaJadtUVq1fLV9+L4n2SAk6fITjLynZlPPo9e0uvZ9VxbL4+7SIHKed7pv8N/TYtJWaTgHQp0AwQWNx7uWfoouueJpc91PhC4GHbzB6pDrPyT3wqU7R5DzQuPq4elSb4+YcTTbq5lOTiDBXv85GTVuV3QxYYYxL13xxCQ6dC02/LesNmnHryTRzGqJjQcPATSkA0H8sX7yJpPceHfblC8lzeSESovaTeNhRyee/qEOoprpkdKg4VAcxwmMa0lTT1XZ173VlkvRfZ5Paj+7YJTRfSJj7L6i2MxNXVypN9PDU82nmtCWaTgHQL0AwQeOR896lfcZnaMy+x8R7MEFMQkeMB6bztLghR90QaRKRUa8F6haqXZp8obZV+0wCxZXX3QvdULDpnnACGYdG7IVFZNuSlr54Ld323/cnqAiAPgVDsqBxeezNC2lI5i7K54aRxxw7ws7vmYYJqY4/eV1+05yizr6k6ASynvo1ZbjvF3XZahi6rdYdd8+Cnylcn+UQOc5WymcvodM+8yuTpQD0F/AwQeMy647XqJD/Ix1y5ChynPHkpDIl4dQFu+iGA8ng+ekElqs3zptKItxxeeO8Nd2XBLUM57XG2aTmJ03euCFrzgtnBFnYROl08d0mkoVf0oxbL6OrLmnTGARAvwMPEzQHT790EOWGX0OW9Y+UGdpKhTxRoaAEAMnypuC6CE6qpUuvdNRGKPhEJI+lqaapgTFM2yK4zY0Ie2TsZutKXf5bzebqlejg0HUybOKu3g/BvtX2v4Jt8Tcnkl8p7Ee/poreJFFXx1aS3uP08G0/plnT3tdZC0CjAMEEzcW5l48jso6k879zIInU3iQpo1cG/VzgcaOdI1tt+0hZ2RxB4wVF/cBwnton05Bm8mFcswW1NEkiZEvYztJVff21/5Nx9jJaT/Gabdv08pbsL9Zkve3RFjjVDV4WXWTTGpp+x/tkiQU043Zsqg6aBggmGJQ8teqjH0rbudZ1XWM+zsE0TgUmgKtDHcjsTtu1OkRZ7PTtqGkVkvQt3dJCM2+6fv9fTJnyYYLsAAwYcLwXGJR0ST8eszQqO+DYtZ0qSKIuD7uEgcEH/ugBAACABEAwwaCl0ecjGtW+RrULgF0NhmTBoCQlhGcMJDXR04nNpPlFKfC3V+rqRYr3LSUktzAWgAENviyC5uLJ984l6X66R3V4Up62l3P8MMc6XlaXe6ghN1QOnylFi1b+qfjhNKHAVc2aRFnbxacaz1o5EzvxvzrJ2lB5K8qpoeUwStnIexncqL7Wx1qp+Ehe27bpuQ3ZyStztDVpT6J42+jVR6bSpEndrwKAPgYeJmguLHk6SXEqG1bKoqx1LOa3BD21qZBOSa5gWDBKSyiDglmpiln4H9rxRq0jgamaNZ4loY0KmS+YQihl4ogKaSLBVJaFdgrr22SRjIhykjBffy8D52OaN29qUqsBaAQgmKC5kJ4gzx1e+pBkpxt+NX6ByP8x795T2QiB26EnumqxlFdXB9uZcLucgEuuPaqlGTc9YGyM9JVf5xlJk4q90hum6RRTnqnPttPUhk19QHOBoB/QbHSGBUSHCJyxqHO/TG6ZbmiS8xM5gYiDyxMUXEF8P3V9162u1HyZiAwpy3A/2Nur2CRMbZu+xPhJ27gWAGhk4GGC5sLzAvNmnBdJtQe/5EQvTmw0WwgICm9vx9Zp8D5j7VDL6mwz2c55lZr6ZMzuQ1K3D1CwDkP5uC0SJDG7BAHQ2MDDBM2F662veY4i5sEcJ1KqJ6cKgAgH2mg9PlP9XDpH0GuTAS8wzqMUSjuqqHOCyvWVwmnas0ZVITZ51ty9rWSVmxPcFAAaCggmaC6Wv7K+FuXJRZdI5RrFeG1quSRDq9JQj5pPzcvZGUgLhtFKXR/VPqkiT5pyJuFW5111/Yqbj1Xvva6st95gDAANCQQTNBfLX1wV9n5I7xWy4kmaIVOKEQPTvKVaj+r9cYKm85JV4Vbt0/WHEyzuS4BqX9x8K9cvXV2caAfKVpJtmyjr4nQS0HRAMEFzIcTHgQ+BC5xYxVamvOo8U1Wguc+mNk3pquDo6lW9TVL6zNmnG7ImpTxpRD4umCeur8oXhkrRomA+eufHMRUB0HBAMEFzIbx28tzO0gdOHE1CZhoOJUawmCHT0DWuTmLycJi8RpO3ytkhDN6k2n/O21Xfq+1xbVFgjtV0n7g8/hzpSs2NAaBhgWCC5uKgPTeRZW+IXjANO5Jm2NY0jMgJFdee4ANhRNz8pmYoWATShK4/mkAd1k5TX3QCa7I50KYkpd4k7RNRPueREKs0DQPQsEAwQXMxaVLx+ftOvDfHeVWcV6l6m5yocKhl1Ms6b1VHRYQCdksyDDur7ZrmGXVCpvuSUQ+6djVD45ZN5HnLafeh67rRGAD9CgQTNB+y8CZZVvRhrJ225DxL3TUKfxa6eTvdkCX3WeeBqXXrhI2i84HaOVWuDc42k9dseh9IE5SgXeV98X5a4lm648YcUykADQ0EEzQfry16hezKnhsBz43dG1YneCYPNeA9StN1U30c6jyfyUvkhMg0h8q1o/OCTWVVO7m2g0mcTap3H8wiC+R5szUNA9DQQDBB8/HaojaSMl/6oHpX3INeF7yiwg3L6uZCTXOYXBkyeIWkCSJSX4XBK1XTTPOKqu1SMc/UDhkENZG4v0FLZr3IGAVAwwPBBM2HJ1dSIb/MH5YNBslE5iopOncZGkakQJ644VrSiJyuzWAenZer5lFt4a6rtuk+c2UlE0gUaCtiYpzdwaY5gVV+hP/7eokmTerOZCkA/Q4EEzQfc+50iWia/746LKgKE+fdaU4EYb0h0tTDXVPfc0Oh6ms9w69x85LqMK9uyFVohpiJsd3UL8WeyD3VeKBOiujVhc9pGgag4YFgguZk5O5ziOT6qEcmYjw+bn5Nva4bbuSEwBRAJAwiVr4m4uYwVTs4u9VhYe5eqHVw13RluL6q+Ska3KPmkx7RG4vmM5UA0BRAMEFzcvxeO4iEwVtRRYs0YqMGx3DX1Hp11JufAvvFJgiy0XqpcZiGaynGK1XTuPlgpj012bKJCoVnaNlirL8ETQsEEzQvrZ1/oFTaEChTgZuD1M23UeA657Fx9av16K7p0HmGceVIsUcRQEHhz5HgJM5u1WulGK9cN4ysmuh55LnX0vKFhQQdAqAhgWCC5uWeu/9AUnaYH/acB6kb8iQmWIi7bgqG0XmznBepliHGZjVNFTJljjb4XpJG+Ekpw9mstksx4mi6p8VL1lL65fWIjgVNDQQTNC+z7nyfctn/IssyuDYmr43zOIOfTcOPusAbXVluiFgVMk78dIKo1qvaqBN70/C0Ou/KCa3Jg+ZEvviUsYiWvXgXPfywqykMQFMAwQTNzRmfnVbayJsZhvWf7TLhnJ9OOLk8prQkw6lJ03VDvEn6YRpajas7yTBwXABQII+ULr2+4FcJKgWgoYFgguZGCElSzvbX+Kn4OqF6THGBMknEItII857LF3ddV0ec9xpXp8lD5KJ3KWZIOomdoeRnaead7QmNBqBhgWCC5ufhqdPJShJUkzSq1ITJKzN5sqaAIIrxSpMMiXI2JSFpu3H5FSGvePctGaI1u81IaAwADQ0EEzQ/ry1eQZIWlD6YPD6TaNXrTan1cp+55RqmABvSBCnVAzc3maRO3X1LYofq9Zb34C16/bmuFXTHqU92oyMANBwQTND8rFgs6ZOl/02O4+mDduLEol7PLS6alhLMZ6pl1UAbru64YV3V001SJ2mCndT64mxQ7omwVtOM20+m5Ys3G4wGoGmAYIKBwb98fR4VumaTUznFxBRAIwMBQSaxjAveMQUI6S5xQTkUI7rGCpVr9XqDxH+ZEDrbdBHASvu2Q+S6D9KsaR/HGARA0wDBBAOHWff8K0n5djhRs9SB3VOWEgyZVlC9NW4YUwZ28tG1xS0b0dmeNE2tkxumJeYLQyAwSqp95fqo2lDO62+LJ9ppzq33aDoOQFNSb0ggAI3Nk8v+lVLD76Bcl2FJBScS6ntS8gfqEBXBZeo0Onk67y5QLlLeUMZor5IeN3KceLo0wfC1EEUX/mQ67aBnktYKQDMADxMMLK68dDrlsi+QpQ7NqkEvklGouOHRymVDMJDk2uIyKbZIrrwO03Au5yGbDsKmGC9YLaO2qbRjFx8p1kMQSzAQgWCCgcXyxVsp555MQqypJQYCXoQaAEMxUa6kX5AfycO0F8qnm1dNOk+ZZH6SDPOkuvfdmaMNlq143v6Zlx49MvUnMYYC0JRAMMHA45yDd9CS568tbcxOiqdl8A4jHigp3qDqiXHeVhx1erORcrp5RBkTBct510pfhK5ezk6mDdvZRl1dp9PMaW8n7BQATQXmMMHA5Yl3LiXHupUKudZSgjr8mmT+krpRRp1jNImsmq+euUm1DrV+ri21LFcmif0KlkX02oKL6apLpvMZAGh+IJhgYPPkW9NIiMvJ8wKJqndkEilSypnyJKmjO/WbhkbrCPzRiX1IE01fCAzCnnJeoFM/9aWkPQWgGcGQLBjYXHXRj4ms8qHFJuEhfSBLJI9uyDOuPlNZdRhUJrCXDEO7piUvSp3aJTZcHYrXWfQsU+l2WjDv3w1GAjAggIcJBj5vrD+DPux6jDp31tLqWkpRQR2i5Dy0euuKy0MaT5FL5+rmhm2DJBlSNthtO9vJzR5Fpx+8IqYzADQ98DDBwOesk56kjq3foVR6SymhssyC8+p0n4OImKCdgIco1Lp0gUXqq86zTRKQoxNSLjJY50GqeWR0GNdyCrT0+X+DWILBAjxMMHh4/I3v0tDWm0qeZkAMhFA0xzR3R938Z6Oro955S51tpnbJ0KYpIMjg2Topj/K5S+mMzz5gaByAAYXd3wYA0Ge8tuhV+srXspROH0meV15zIphlkLp1kYLPz2XVXhBK/SLaRLAtUpdrihhbuXbVtZ4iXJ7tr2btpbDI3+R+yQv/Sd/56l0xjQMwoICHCQYf1953HB1x/LepUIhRvwrB4cjijxczmyEZzy9pO0mWucSVjctjyquzoVq2kx6+9XaaNe3VOowDAAAAAACDBQT9AAAAAAmAYAIAAAAJgGACAAAACYBgAgAAAAmAYAIAAAAJgGACAAAACYBgAgAAAAlw+tsAAJJy9TcOzRx78B6nHnv4xLOELUbHb3nO7fcadz4llx63kblp93XTWZNkOAczyZZ1urp0qNsBmvpDhj7Ws9t8uJwstunJzW2vrnlu0oMvT29btmZbwooA6Hew0w9oCq6++LD9fnTJ4b+2hjhfkJ0F8qSs7RQnSSNGQUrpVUkSpYd3WKaEn0Mw5ULlI22WKOUS5feSRGXLOUkaMQwTLB/Kp7GVRPlTsP5imgz3VSfVxMpzVIxrdkUFM3otkCskyrVrlhAkMg55Xfk/Wpu3nSLOmeOyNwSABgN7yYKG5+qLjmj90T998TFhiyO9rNstP4eqZUS5TLLviuY2hFJn5b1U2pPdstcsr/E2h+1KXq638unwNw4seGQ51gGyNfN3ba+u/vUHa3fs6EGVAPQJ8DBBQ3Ps4fuIuTf8/UPCsi6UrmfMyw9m1rykeuiJKHBlheLF1W9Rknb19e6qNnuGIMsuimfhJvvkB/6rv60BIA4E/YCG5riDxg0jSceSpxeCIPptxUUov+H8jvLQbP1bp1N5GDI6tMqlqfYLbTuCKcnVFbQ1el9kNFNMnfozS8IWCeW+ctXz9kvyXEnkpD6t7QwADQSCfkBjkxEFktSp0wfOawofiax+CqeqZbiSpAm3IcablFIydqm1S+a91Hq1fB/13iLXw8gMJFPcdC+T28N79Or8qXJ/ctrOANBAwMMEDc2k+xd3Cks8QY7ZxwvO11XThGA9SREoQ8o1CnhQXDmdEDAGhdrQWc9boPPs9LbXrNFd4+8F13rc3Kl6X8NfDcI2CObeBdu1Uw7lvAKOCgNNAYJ+QMPjysLi4/5y3InCssYKzjWKGaIM5zMtABFsHlH1/3pGT2tQ50F7Vi830Nu3CNsqerorrrtv0ffaXl+H5SWg4YFggobnz8vWdnkuzT/h0H3OtDLOcHJlzXMRtbnJyiqOWhpVr1mistyjlG4JwS6voEid0RlBzvMUAQkKtesv9ShfEWr+6HxgpdKgl1t9F+pXqb+lpGheodhHjM2k3sNaE0pd0bqF4Pqt9r/ijSr/CSK7xSFy3ZetTutvTrjy6Y0J/gwA6Hf69ysmAHVw9QWHjTzm0DFnn3DE+DNJiN3j4ljDnqLJt6RAGIrOgyXN4hDRjQ0EKBTko87/qXn0myqE9x9QF7QEy9aiZCv+sho1a46j5a6GPW+p3CWLJHnMrRDSIrnh2ZdXL7j2oZfvblvavsFwkwAAAAAAQLOBoB8AAAAgARBMAAAAIAEQTAAAACABEEwAAAAgARBMAAAAIAEQTAAAACABEEwAAAAgARBMAAAAIAE4rQQMWo49dKxz7Of3HiOEaE12VmSSXX7quab7zNVBMXnqqUu3MxHXTuCaJE8Ib+ukh5asYxoAYMCDrfHAoCT/x2+daBFdRZK+ZLWmHfa8qwq+ZjBCFNyXLpxZ+7G0UawM1xfa3059T7yAaXffU0VPI6gR24OPAsn0sfjqkduR30FCLLWl/LE46b7fcxYAMFCBYIJBxdUXHTb6B984/HbHogs8IUi4Xlk3dDup8soU3HnWfAJK/K6yofxC+Gdq6vdujdohI/vFxvvCSXe+rdhT/WwJItufyemigvfU8f/5m/+Yv6z9wzq6CEDTgtNKwKDhR5ccsv/V3zxysZD0Jc+TRF6ygdjuET4xRZ9LnyN6pfvfb83t1HGteMNK984RQnzun0456Bjh5h9se22d223jAGgS4GGCQYM7/1uXWZ71Mzenf7ZHBzRLXpvJI0vqDfJlowcrJ/NWoy3U682a7a/Vpq1TEFmWVdTPf3C+eu9vutE0AE0FomTBoMHb6R1IeS98PJaSRyoCIRnRUAVEqnOWBqJl9W2by0aPtE4qltFy0ZKynGo8sFqW8gnX+6uETQPQ1EAwwaDBSqW2k2U62ZI9zrl6TU3hEFWFEZHDm0WkHl64tZorwraotvN16XojIlXz9lK5rWiAUOmAaKv4v206kwEYSEAwwaBh3gOL55UEs0R0aFRWPat4TAOn5EeWRr1VVXhk5F1peJSpjyqRuqQ5JjpalylvMDiIAt5tEo836HV7nrdBdnTMYrIBMOCAYIJBw99Of2W+l3VvtVtqsW5BwRBVH5DxyjRuX9RrlIH61LwiVJnq0RE7PBqWMMHYXWtAVNtReyKUICTdikuuq1w/imn2kDR5RPc4p8/4mAAYBCBKFgwqxIHZ33sbrMIB40Z+XliilWzLXypRWS5h+a+immbZFpGS5v8U8xav+emlPCKQz6/HL19Lq7ZV+ez/WIF2rGp7olK23JZfxo7WaVXbtqr5qZxWeRXV9FJdVCnv22OF7Am+hvthVcuX2rc+zHVkbzrxu7+d+sHaHdn+/r0C0BcgShYMSq7+5mFpmacjjjt0wmf3/8vojlcTNOW2ENEoIlqlybMq8H5U+Sd4bYJSdlWgvUr6lvKP+r7SfvB1gmLTKM01CtRFMW2q9m4J1LOkjTrbPvjg7bYla5a1LVvToblNAAAAAABgsII5TAAAACABEEwAAAAgARBMAAAAIAEQTAAAACABEEwAAAAgARBMAAAAIAEQTAAAACABEEwAAAAgAZEdTgAA3Ue+9O0Ubfb2Jkv2y7aTuXyqkD55zBohrvH6o30ABjLYGg+AHnL1NyZYXznk4POPP3zcvxDRgZ7rtYrQv63wFu+195XLwj/dJJw/5hjpahkRrldIT9jWTiHl2550f3/C//ntA23L2tf0bo8BGJxAMAHoAXN/cvLnjzt6v1mC6HNeoXedutJRX7xwBmVSKmkVLMcuCujqa+5ZcNy1j7z2Tq8aB8AgBIIJQA9w5/7zLOHJc2T5/EuTyKmIyDmY0ZMw9X5msnaKjqgrxS/SJ/3PPyUyCgCgBcd7AdBN8m9fMUpszU4mSa3JJLJ30Amp7tuvZYvdhBQ/a1u2xt3FpgEwoEGULADdRL67cSJJuVvQ04uKVvAIZ/WI5mQDPFwu/vBpDR6Nvua8Q8ckagwAoAWCCUA3EVbmExK0zZxLBl4lkxYWP04cVSGUSm1x8isFbc9NPHWD2U4AQBwQTAC6SeqUe9ZZtr0gmCaNwsVfic5cht8JppxJWEXAm/XFWFjzWz535k5TXwAA8UAwAegBc1/68DqRtj+x7No/Ja1oSv1MZ83nlNE0ppwMeKaq4Mryf8ISRGl747x3hl1fb78AAFEQ9ANAD3jwmXc/FgXvZyTkhonjR+5PQgzzxVIITxR/LOEJKr+v/pDyOeaaZXmCKHC99J78H1LakcX3XVbKfsfLe9Ovnb70skuv++Wb/X2fABgIYFkJAL3E5V//nD3t0qMnkvQyZPXP4I0rPLJdueOaG1d9MGnevL4M3gUAAAAAAABzmAAAAEAiIJgAAABAAiCYAAAAQAIgmAAAAEACIJgAAABAAiCYAAAAQAIgmAAAAEACIJgAAABAAiCYAAAAQAIgmAAAAEACIJgAAABAAiCYAAAAQAIgmAAAAEACIJgAAABAAiCYAAAAQAIgmAAAAEAC/n8AAAD//3pl0xu7aT+UAAAAAElFTkSuQmCC;" vertex="1" parent="1">
          <mxGeometry x="330" y="90.00000000000023" width="460" height="460" as="geometry" />
        </mxCell>
      </root>
    </mxGraphModel>
  </diagram>
</mxfile>
